<?xml version="1.0" standalone="no"?>
<!DOCTYPE svg PUBLIC "-//W3C//DTD SVG 1.1//EN" "http://www.w3.org/Graphics/SVG/1.1/DTD/svg11.dtd" >
<svg xmlns="http://www.w3.org/2000/svg">
<defs>
  <font id="PathTime" horiz-adv-x="256">
    <font-face font-family="PathTime"
      units-per-em="256" ascent="256"
      descent="0" />
    <missing-glyph horiz-adv-x="0" />
    <glyph glyph-name="multiple-11"
      unicode="&#xEA05;"
      horiz-adv-x="256" d="M122.5 248.594C115.962 246.979 112.528 245.107 106.734 240.002C90.06 225.309 89.865 199.44 106.315 184.277C111.566 179.437 115.666 177.177 122.5 175.356C142.485 170.031 163.222 182.129 168.575 202.236C172.286 216.176 167.979 230.559 157.266 240.004C147.161 248.912 135.473 251.8 122.5 248.594M143.529 235.22C152.775 230.458 157.401 222.714 157.401 212C157.401 203.677 155.927 199.787 150.638 194.162C145.322 188.508 140.521 186.546 132 186.546C123.479 186.546 118.678 188.508 113.362 194.162C108.006 199.859 106.54 203.693 106.54 212C106.54 220.308 108.007 224.144 113.362 229.835C116.525 233.197 120.376 235.61 124.994 237.126C129.118 238.479 139.219 237.441 143.529 235.22M43.792 232.657C31.34 229.149 22 216.878 22 204.027C22 188.208 36.195 174 52 174C67.792 174 82 188.208 82 204C82 214.798 74.288 226.773 64.563 231.075C58.784 233.631 49.704 234.323 43.792 232.657M203.792 232.657C191.34 229.149 182 216.878 182 204.027C182 188.208 196.195 174 212 174C227.792 174 242 188.208 242 204C242 214.798 234.288 226.773 224.563 231.075C218.784 233.631 209.704 234.323 203.792 232.657M60.03 219.75C73.153 213.121 73.153 194.879 60.03 188.25C54.386 185.399 49.614 185.399 43.97 188.25C30.847 194.879 30.847 213.121 43.97 219.75C46.42 220.987 50.033 222 52 222C53.967 222 57.58 220.987 60.03 219.75M220.03 219.75C233.153 213.121 233.153 194.879 220.03 188.25C214.386 185.399 209.614 185.399 203.97 188.25C190.847 194.879 190.847 213.121 203.97 219.75C206.42 220.987 210.033 222 212 222C213.967 222 217.58 220.987 220.03 219.75M25.063 159.808C17.735 156.995 10.926 150.091 8.143 142.653C6.176 137.395 6 134.999 6 113.462C6 85.64 5.869 86 16 86L22 86L22 60C22 35.333 22.103 33.897 24 32C25.897 30.103 27.333 30 52 30C76.667 30 78.103 30.103 80 32C81.1 33.1 82 34.9 82 36C82 37.1 81.1 38.9 80 40C78.121 41.879 76.667 42 56 42L34 42L34 68C34 98.705 34.235 98 24 98L18 98L18.022 116.75C18.041 132.795 18.309 136.077 19.881 139.5C24.086 148.659 28.096 150.001 51.218 149.994C70.724 149.988 75.422 149.261 79.693 145.587L82.39 143.268L80.467 137.884C78.745 133.064 78.51 129.02 78.222 99.3C77.832 59.036 76.737 62 92 62L102 62L102 32.582C102 16.402 102.273 2.452 102.607 1.582C103.141 0.19 106.673 0 132 0C157.327 0 160.859 0.19 161.393 1.582C161.727 2.452 162 16.402 162 32.582L162 62L172 62C187.263 62 186.168 59.036 185.778 99.3C185.49 129.02 185.255 133.064 183.533 137.884L181.61 143.268L184.307 145.587C188.59 149.272 193.289 149.99 213 149.972C228.811 149.958 232.081 149.689 235.5 148.119C244.679 143.904 246 139.931 246 116.532L246 98L240 98C229.765 98 230 98.705 230 68L230 42L208 42C187.333 42 185.879 41.879 184 40C181.454 37.454 181.454 34.546 184 32C185.897 30.103 187.333 30 212 30C236.667 30 238.103 30.103 240 32C241.897 33.897 242 35.333 242 59.954L242 85.909L248.75 86.204L255.5 86.5L255.765 115.056L256.03 143.612L252.983 148.211C249.281 153.801 244.385 157.666 237.871 160.141C233.686 161.731 230.044 162 212.671 162C189.763 162 184.931 161.121 177.761 155.647L173.437 152.346L168.631 155.658C160.826 161.037 157.922 161.5 132 161.5C106.078 161.5 103.174 161.037 95.369 155.658L90.563 152.346L86.239 155.647C79.023 161.155 74.271 162.007 51.068 161.948C32.691 161.901 29.921 161.673 25.063 159.808M156.128 148.472C161.994 146.473 167.341 141.978 170.751 136.176L173.5 131.5L173.806 102.75L174.113 74L164.056 74C148.96 74 150 76.517 150 40L150 10L132 10L114 10L114 40C114 76.517 115.04 74 99.944 74L89.887 74L90.194 102.75L90.5 131.5L93.249 136.176C96.552 141.795 101.971 146.459 107.463 148.409C113.44 150.531 149.946 150.578 156.128 148.472" />
    <glyph glyph-name="multiple-11-2"
      unicode="&#xEA06;"
      horiz-adv-x="256" d="M24 208A24 24 0 0 1 72 208A24 24 0 0 1 24 208M56 56V136C56 147.832 59.712 158.8 66 167.856C65.336 167.896 64.672 168 64 168H32C14.352 168 0 153.648 0 136V88H16V32H72V56H56zM184 208A24 24 0 0 1 232 208A24 24 0 0 1 184 208M200 56V136C200 147.832 196.288 158.8 190 167.856C190.664 167.896 191.328 168 192 168H224C241.648 168 256 153.648 256 136V88H240V32H184V56H200zM144 176H112C89.944 176 72 158.056 72 136V72H96V8H160V72H184V136C184 158.056 166.056 176 144 176zM96 224A32 32 0 0 1 160 224A32 32 0 0 1 96 224" />
    <glyph glyph-name="compass-2"
      unicode="&#xEA07;"
      horiz-adv-x="256" d="M128.695 232.75C127.768 232.062 122.016 220.25 115.914 206.5C109.812 192.75 104.523 181.193 104.16 180.817C103.797 180.441 93.643 183.934 81.595 188.579C69.547 193.223 59.523 196.856 59.318 196.652C59.114 196.447 62.74 186.43 67.376 174.39C72.013 162.351 75.512 152.202 75.153 151.838C74.794 151.474 63.095 146.114 49.156 139.928C12.737 123.765 12.737 124.235 49.156 108.072C63.095 101.886 74.794 96.526 75.153 96.162C75.512 95.798 72.013 85.649 67.376 73.61C62.74 61.57 59.114 51.553 59.318 51.348C59.523 51.144 69.547 54.777 81.595 59.421C93.643 64.066 103.798 67.559 104.162 67.183C104.526 66.807 109.886 55.095 116.072 41.156C132.235 4.737 131.765 4.737 147.928 41.156C154.114 55.095 159.474 66.807 159.838 67.183C160.202 67.559 170.357 64.066 182.405 59.421C194.453 54.777 204.477 51.144 204.682 51.348C204.886 51.553 201.26 61.57 196.624 73.61C191.987 85.649 188.488 95.798 188.847 96.162C189.206 96.526 200.905 101.886 214.844 108.072C251.263 124.235 251.263 123.765 214.844 139.928C200.905 146.114 189.206 151.474 188.847 151.838C188.488 152.202 191.987 162.351 196.624 174.39C201.26 186.43 204.886 196.447 204.682 196.652C204.477 196.856 194.453 193.223 182.405 188.579C170.357 183.934 160.203 180.441 159.84 180.817C159.477 181.193 154.188 192.75 148.086 206.5C141.984 220.25 136.232 232.062 135.305 232.75C134.377 233.437 132.89 234 132 234C131.11 234 129.623 233.437 128.695 232.75M146.03 181.75L159.5 151.5L189.75 138.03C206.387 130.621 220 124.308 220 124C220 123.692 206.387 117.379 189.75 109.97L159.5 96.5L146.03 66.25C138.621 49.612 132.308 36 132 36C131.692 36 125.379 49.612 117.97 66.25L104.5 96.5L74.25 109.97C57.612 117.379 44 123.692 44 124C44 124.308 57.613 130.621 74.25 138.03L104.5 151.5L117.97 181.75C125.379 198.388 131.692 212 132 212C132.308 212 138.621 198.388 146.03 181.75M124.684 144.611C109.522 138.966 105.257 119.956 116.607 108.607C127.583 97.631 145.521 101.113 152.121 115.5C156.725 125.535 151.968 138.346 141.658 143.677C137.49 145.832 129.191 146.289 124.684 144.611M138.977 130.476C142.789 126.666 142.452 120.686 138.211 116.898C133.02 112.259 126.41 113.51 123.479 119.685C120.933 125.051 123.398 131.144 129 133.331C131.675 134.375 136.44 133.011 138.977 130.476" />
    <glyph glyph-name="compass-2-2"
      unicode="&#xEA08;"
      horiz-adv-x="256" d="M77.272 178.728L84.912 199.728L38.376 217.624L56.272 171.088zM178.728 178.728L199.728 171.088L217.624 217.624L171.088 199.728zM178.728 77.272L171.088 56.272L217.624 38.376L199.728 84.912zM77.272 77.272L56.272 84.912L38.376 38.376L84.912 56.272zM250.736 135.52L166.24 166.24L135.512 250.736C134.368 253.896 131.368 256 128 256S121.632 253.896 120.488 250.736L89.76 166.24L5.264 135.52C2.104 134.368 0 131.36 0 128S2.104 121.632 5.264 120.48L89.76 89.76L120.488 5.264C121.632 2.104 124.632 0 128 0S134.368 2.104 135.512 5.264L166.24 89.76L250.736 120.48C253.896 121.632 256 124.64 256 128S253.896 134.368 250.736 135.52zM128 112C119.16 112 112 119.16 112 128S119.16 144 128 144S144 136.84 144 128S136.84 112 128 112z" />
    <glyph glyph-name="square-add-08"
      unicode="&#xEA09;"
      horiz-adv-x="256" d="M248 256H8C3.2 256 0 252.8 0 248V8C0 3.2 3.2 0 8 0H248C252.8 0 256 3.2 256 8V248C256 252.8 252.8 256 248 256zM184 120H136V72C136 67.2 132.8 64 128 64S120 67.2 120 72V120H72C67.2 120 64 123.2 64 128S67.2 136 72 136H120V184C120 188.8 123.2 192 128 192S136 188.8 136 184V136H184C188.8 136 192 132.8 192 128S188.8 120 184 120z" />
    <glyph glyph-name="square-add-08-2"
      unicode="&#xEA0A;"
      horiz-adv-x="256" d="M8 248C6.022 246.022 6 244.667 6 124.582C6 57.802 6.273 2.452 6.607 1.582C7.156 0.151 19.099 0 131.607 0L256 0L256 124.393C256 236.901 255.849 248.844 254.418 249.393C253.548 249.727 198.198 250 131.418 250C11.333 250 9.978 249.978 8 248M246 124L246 10L132 10L18 10L18 124L18 238L132 238L246 238L246 124M128 184C126.103 182.103 126 180.667 126 156L126 130L100 130C75.333 130 73.897 129.897 72 128C69.454 125.454 69.454 122.546 72 120C73.897 118.103 75.333 118 100 118L126 118L126 92C126 67.333 126.103 65.897 128 64C129.1 62.9 130.9 62 132 62C133.1 62 134.9 62.9 136 64C137.897 65.897 138 67.333 138 92L138 118L164 118C188.667 118 190.103 118.103 192 120C194.546 122.546 194.546 125.454 192 128C190.103 129.897 188.667 130 164 130L138 130L138 156C138 180.667 137.897 182.103 136 184C134.9 185.1 133.1 186 132 186C130.9 186 129.1 185.1 128 184" />
    <glyph glyph-name="home-minimal"
      unicode="&#xEA0B;"
      horiz-adv-x="256" d="M76.652 201.079C47.585 178.651 23.405 159.67 22.917 158.9C21.935 157.349 21.633 4.12 22.607 1.582C23.147 0.175 27.731 0 64 0C100.269 0 104.853 0.175 105.393 1.582C105.727 2.452 106 20.002 106 40.582L106 78L132 78L158 78L158 40.582C158 20.002 158.273 2.452 158.607 1.582C159.147 0.175 163.731 0 200 0C236.269 0 240.853 0.175 241.393 1.582C241.727 2.452 242 37.952 242 80.471C242 152.667 241.884 157.911 240.25 159.783C239.287 160.886 214.994 179.836 186.265 201.894C151.434 228.638 133.276 241.976 131.765 241.929C130.38 241.886 108.966 226.014 76.652 201.079M181.055 190.725L229.5 153.45L229.757 81.725L230.013 10L200.007 10L170 10L170 48C170 84.667 169.93 86.07 168 88C166.078 89.922 164.667 90 132 90C99.333 90 97.922 89.922 96 88C94.07 86.07 94 84.667 94 48L94 10L63.993 10L33.987 10L34.243 81.725L34.5 153.45L82.945 190.725C109.589 211.226 131.664 228 132 228C132.336 228 154.411 211.226 181.055 190.725" />
    <glyph glyph-name="home-minimal-2"
      unicode="&#xEA0C;"
      horiz-adv-x="256" d="M132.872 246.336C130 248.544 126 248.544 123.12 246.336L19.12 166.336C17.152 164.824 16 162.48 16 159.992V8C16 3.584 19.584 0 24 0H96V80H160V0H232C236.416 0 240 3.584 240 8V160C240 162.48 238.848 164.824 236.88 166.336L132.872 246.336z" />
    <glyph glyph-name="single-02"
      unicode="&#xEA0D;"
      horiz-adv-x="256" d="M118 248.446C95.891 243.703 76.143 223.606 71.378 201C63.063 161.555 94.875 118 132 118C162.954 118 191.63 148.635 193.65 183.862C194.757 203.169 189.162 217.876 175.519 231.519C159.844 247.194 139.739 253.111 118 248.446M143.959 236.441C160.755 232.621 175.758 217.969 180.167 201.081C184.605 184.079 180.171 165.014 168.367 150.344C156.468 135.556 143.197 128.945 128.214 130.344C108.302 132.204 88.43 152.31 83.499 175.588C79.436 194.765 84.614 211.879 98.336 224.63C110.877 236.284 126.671 240.373 143.959 236.441M94.258 96.892C60.699 91.299 33.909 62.319 30.416 27.834C29.42 18 30.13 16.275 36.292 13.55C45.451 9.499 64.759 4.759 85.239 1.534C99.17 -0.66 164.83 -0.66 178.761 1.534C199.241 4.759 218.549 9.499 227.708 13.55C233.87 16.275 234.58 18 233.584 27.834C231.486 48.545 221.475 67.095 205.338 80.169C193.643 89.645 182.62 94.72 168.901 96.946C161.25 98.188 101.771 98.145 94.258 96.892M169.792 84.427C195.135 79.255 215.883 58.31 220.603 33.135C221.465 28.535 221.795 24.414 221.335 23.978C220.876 23.542 215.55 21.809 209.5 20.127C161.463 6.772 102.537 6.772 54.5 20.127C48.45 21.809 43.124 23.542 42.665 23.978C42.205 24.414 42.535 28.535 43.397 33.135C48.052 57.964 68.722 79.093 93.5 84.351C103.896 86.558 159.084 86.612 169.792 84.427" />
    <glyph glyph-name="single-02-2"
      unicode="&#xEA0E;"
      horiz-adv-x="256" d="M152 104H104C59.888 104 24 68.112 24 24V18.8L28.752 16.688C30.288 16.008 67 0 128 0S225.712 16.008 227.248 16.688L232 18.8V24C232 68.112 196.112 104 152 104zM128 120C164.632 120 192 158.008 192 192C192 227.288 163.288 256 128 256S64 227.288 64 192C64 158.008 91.368 120 128 120z" />
    <glyph glyph-name="logo-facebook"
      unicode="&#xEA0F;"
      horiz-adv-x="256" d="M245.6 256H10.4C4.8 256 0 251.2 0 245.6V11.2C0 4.8 4.8 0 10.4 0H136V96H104V136H136V168C136 200.8 156.8 217.6 186.4 217.6C200.8 217.6 212.8 216 216 216V181.6L195.2 181.6C179.2 181.6 175.2 173.6 175.2 162.4V136H215.2L207.2 96H175.2L176 0H244.8C250.4 0 255.2 4.8 255.2 10.4V245.6C256 251.2 251.2 256 245.6 256z" />
    <glyph glyph-name="menu-left"
      unicode="&#xEA10;"
      horiz-adv-x="256" d="M240 120H16C11.584 120 8 123.576 8 128S11.584 136 16 136H240C244.416 136 248 132.424 248 128S244.416 120 240 120zM240 192H16C11.584 192 8 195.576 8 200S11.584 208 16 208H240C244.416 208 248 204.424 248 200S244.416 192 240 192zM128 48H16C11.584 48 8 51.576 8 56S11.584 64 16 64H128C132.416 64 136 60.424 136 56S132.416 48 128 48z" />
    <glyph glyph-name="bell-55"
      unicode="&#xEA11;"
      horiz-adv-x="256" d="M119.66 249.021C85.794 242.856 58.65 218.291 48.918 185C46.99 178.404 46.645 174.126 46.055 149.5C45.197 113.741 45.401 114.415 29.463 94.5C25.501 89.55 21.227 83.475 19.964 81C16.842 74.881 16.758 66.072 19.768 60.336C26.305 47.876 50.565 37.851 84.425 33.616L93.349 32.5L94.499 27.5C96.149 20.321 99.277 14.818 104.911 9.184C112.961 1.135 116.307 0 132 0C147.693 0 151.039 1.135 159.089 9.184C164.659 14.754 167.433 19.622 169.384 27.251L170.727 32.5L179.613 33.616C213.482 37.87 237.698 47.884 244.232 60.336C245.797 63.318 246.404 66.203 246.372 70.5C246.317 77.94 243.553 83.673 235.279 93.5C227.381 102.882 223.501 108.702 220.855 115.136C218.824 120.073 218.592 122.808 217.942 149.5C217.157 181.701 216.74 184.274 209.937 198.844C198.773 222.757 178.664 239.72 152.826 247.021C144.541 249.362 127.258 250.404 119.66 249.021M154.311 234.233C165.324 230.437 172.405 226.186 181.165 218.112C192.246 207.898 199.859 195.941 203.734 182.661C204.822 178.931 205.45 169.457 205.998 148.5C206.801 117.741 207.134 115.497 212.45 104.912C213.843 102.14 217.124 97.151 219.741 93.827C231.42 78.992 233.014 76.66 234.011 72.959C235.427 67.7 233.578 64.221 227.188 60.12C216.934 53.541 200.891 48.76 177.5 45.312C162.332 43.077 105.116 42.737 90 44.792C51.048 50.087 27.312 60.585 29.612 71.5C30.611 76.241 33.476 80.83 41.474 90.498C45.569 95.447 50.095 101.9 51.534 104.838C56.905 115.806 57.197 117.767 57.968 148C58.623 173.717 58.916 177.184 60.962 183.5C67.296 203.051 79.99 218.668 97.6 228.573C110.027 235.563 120.565 238.06 135.55 237.567C143.526 237.304 147.397 236.616 154.311 234.233M157.441 28.75C155.353 21.982 149.923 15.671 143.403 12.437C137.991 9.751 126.009 9.751 120.597 12.437C114.077 15.671 108.647 21.982 106.559 28.75L105.865 31L132 31L158.135 31L157.441 28.75" />
    <glyph glyph-name="bell-55-2"
      unicode="&#xEA12;"
      horiz-adv-x="256" d="M208 136C208 153.6 208 168.8 208 168.8C208 211.2 170.4 248 128 248S48 210.4 48 168C48 168 48 153.6 48 136C48 100 19.2 93.6 19.2 73.6C19.2 55.2 61.6 40.8 128 40.8S236.8 55.2 236.8 73.6C236.8 93.6 208 100 208 136zM128 24.8C114.4 24.8 101.6 25.6 90.4 26.4C96 11.2 110.4 0 128 0S160 11.2 165.6 26.4C154.4 25.6 141.6 24.8 128 24.8z" />
    <glyph glyph-name="position-pin"
      unicode="&#xEA13;"
      horiz-adv-x="256" d="M117.831 249.044C84.692 242.974 57.906 220.411 49.531 191.511C42.106 165.888 46.954 143.95 67.577 109.848C79.146 90.718 102.828 59.419 120.049 40.5C128.678 31.02 130.929 29.526 134.196 31.112C138.907 33.4 164.602 63.856 180.416 85.896C207.706 123.933 219.275 151.255 217.669 173.875C215.197 208.707 191.228 236.65 154.933 247.014C146.622 249.387 125.896 250.521 117.831 249.044M146.582 236.575C157.162 234.713 165.28 231.329 175.533 224.507C189.073 215.497 198.568 202.949 203.154 188C206.629 176.675 206.412 160.43 202.64 149.556C194.556 126.253 170.889 90.06 141.299 55.75C136.674 50.387 132.474 46 131.966 46C131.458 46 127.159 50.469 122.413 55.931C94.031 88.592 69.453 126.278 61.351 149.556C58.909 156.574 58.593 158.898 58.637 169.5C58.68 179.686 59.088 182.721 61.333 189.578C65.888 203.489 74.77 215.135 87.574 223.986C105.185 236.161 124.962 240.38 146.582 236.575M123.792 192.657C111.34 189.149 102 176.878 102 164.027C102 148.208 116.195 134 132 134C147.792 134 162 148.208 162 164C162 174.798 154.288 186.773 144.563 191.075C138.784 193.631 129.704 194.323 123.792 192.657M140.03 179.75C153.153 173.121 153.153 154.879 140.03 148.25C134.386 145.399 129.614 145.399 123.97 148.25C110.847 154.879 110.847 173.121 123.97 179.75C126.42 180.987 130.033 182 132 182C133.967 182 137.58 180.987 140.03 179.75M60 66.882C29.232 58.641 14 48.466 14 36.154C14 22.002 34.038 10.324 71.273 2.776C82.057 0.59 84.455 0.5 132 0.5C179.545 0.5 181.943 0.59 192.727 2.776C223.922 9.099 242.319 17.863 248.072 29.142C251.795 36.439 250.069 42.951 242.59 49.824C234.533 57.227 212.395 66.174 198.357 67.699C193.585 68.217 193.087 68.063 191.442 65.551C190.086 63.483 189.89 62.216 190.607 60.175C191.371 58.004 192.569 57.255 197.023 56.165C221.228 50.243 238 42.014 238 36.06C238 31.381 225.517 23.91 210.46 19.579C156.387 4.022 63.182 8.619 32.817 28.339C26.916 32.171 25.179 35.097 26.898 38.31C29.759 43.655 43.809 50.296 61.865 54.836C71.376 57.228 72.554 57.773 73.395 60.173C74.103 62.192 73.919 63.475 72.643 65.423C70.794 68.244 66.805 68.705 60 66.882" />
    <glyph glyph-name="position-pin-2"
      unicode="&#xEA14;"
      horiz-adv-x="256" d="M188.136 75.136C184.432 70.08 180.728 65.24 177.136 60.68C213.376 55.408 232 45.192 232 40C232 32.824 196.616 16 128 16S24 32.824 24 40C24 45.192 42.624 55.408 78.864 60.672C75.272 65.232 71.568 70.072 67.864 75.128C33.952 69.208 8 57.736 8 40C8 12.512 70.2 0 128 0S248 12.512 248 40C248 57.736 222.048 69.208 188.136 75.136zM128 256C84.744 256 40 224.448 40 171.64C40 121.888 118.84 38.312 122.2 34.784C123.704 33.192 125.8 32.296 128 32.296S132.288 33.192 133.8 34.784C137.16 38.312 216 121.88 216 171.64C216 224.448 171.256 256 128 256zM128 136C110.328 136 96 150.328 96 168S110.328 200 128 200S160 185.672 160 168S145.672 136 128 136z" />
    <glyph glyph-name="road"
      unicode="&#xEA15;"
      horiz-adv-x="256" d="M72 256H104V240H72V256zM88 144A40 40 0 0 1 168 144A40 40 0 0 1 88 144M152 40L104 80V48H60C35.744 48 16 67.736 16 92S35.744 136 60 136H72V152H60C26.912 152 0 125.088 0 92S26.912 32 60 32H104V0L152 40zM196 256H128V240H196C220.256 240 240 220.264 240 196S220.256 152 196 152H184V136H196C229.088 136 256 162.912 256 196S229.088 256 196 256z" />
    <glyph glyph-name="road-2"
      unicode="&#xEA16;"
      horiz-adv-x="256" d="M80 248C78.9 246.9 78 245.1 78 244C78 242.9 78.9 241.1 80 240C82.984 237.016 101.016 237.016 104 240C105.1 241.1 106 242.9 106 244C106 245.1 105.1 246.9 104 248C102.267 249.733 100.667 250 92 250C83.333 250 81.733 249.733 80 248M128 248C126.9 246.9 126 245.1 126 244C126 242.9 126.9 241.1 128 240C129.929 238.071 131.333 238 167.79 238C208.023 238 211.935 237.624 221.26 232.867C227.018 229.93 237.142 219.992 240.315 214.163C247.505 200.953 247.718 184.168 240.867 170.74C237.581 164.298 227.494 154.403 220.809 151.062C212.5 146.911 206.288 145.899 191.058 146.22L177.725 146.5L176.383 151.749C174.371 159.62 171.358 164.8 164.85 171.578C155.69 181.117 144.567 186 132 186C119.907 186 109.683 181.742 100.422 172.85C93.582 166.282 89.704 159.917 87.655 151.895L86.277 146.5L69.389 145.905C50.028 145.222 43.303 143.591 33.428 137.183C25.556 132.074 15.981 121.65 12.187 114.059C3.262 96.198 4.346 73.603 14.917 57.129C19.095 50.619 30.171 40.247 36.705 36.728C47.831 30.735 53.8 30 91.333 30L125.347 30L117.673 22.115C109.54 13.757 108.595 11.405 112 8C115.813 4.187 117.722 5.301 132.211 19.789C142.595 30.174 146 34.198 146 36.086C146 37.98 142.62 41.941 132.17 52.296C117.674 66.66 115.767 67.767 112 64C108.595 60.595 109.54 58.243 117.673 49.885L125.347 42L91.884 42C55.594 42 51.415 42.472 41.905 47.648C35.822 50.959 26.959 59.822 23.648 65.905C16.3 79.406 16.3 96.594 23.648 110.095C27.271 116.751 36.416 125.552 43.266 128.975C51.498 133.088 57.745 134.1 72.942 133.78L86.275 133.5L87.654 128.105C89.705 120.082 93.583 113.717 100.422 107.15C109.683 98.258 119.907 94 132 94C144.093 94 154.317 98.258 163.578 107.15C170.418 113.718 174.296 120.083 176.345 128.105L177.723 133.5L194.611 134.095C213.972 134.778 220.697 136.409 230.572 142.817C238.736 148.115 248.138 158.503 252.156 166.665L255.5 173.458L255.5 192L255.5 210.542L252.089 217.521C249.613 222.587 246.46 226.7 240.589 232.523C231.347 241.69 225.398 245.213 214.415 248.022C207.369 249.824 203.266 250 168.34 250C131.333 250 129.93 249.93 128 248M143.687 171.844C151.01 169.104 159.06 161.613 162.745 154.109C166.479 146.506 166.625 134.246 163.076 126.24C159.597 118.389 150.77 110.627 142.374 108.034C134.093 105.476 129.907 105.476 121.626 108.034C113.262 110.617 104.425 118.376 100.891 126.24C97.353 134.111 97.495 146.43 101.211 154C109.209 170.294 127.402 177.937 143.687 171.844" />
    <glyph glyph-name="funnel-39"
      unicode="&#xEA17;"
      horiz-adv-x="256" d="M8 224C6.9 222.9 6 221.1 6 220C6 218.9 6.9 217.1 8 216C9.978 214.022 11.333 214 131.418 214C198.198 214 253.548 214.273 254.418 214.607C256.653 215.465 256.653 224.535 254.418 225.393C253.548 225.727 198.198 226 131.418 226C11.333 226 9.978 225.978 8 224M40 160C38.9 158.9 38 157.1 38 156C38 154.9 38.9 153.1 40 152C41.97 150.03 43.333 150 132 150C220.667 150 222.03 150.03 224 152C225.1 153.1 226 154.9 226 156C226 157.1 225.1 158.9 224 160C222.03 161.97 220.667 162 132 162C43.333 162 41.97 161.97 40 160M72 96C70.9 94.9 70 93.1 70 92C70 90.9 70.9 89.1 72 88C73.954 86.046 75.333 86 132 86C188.667 86 190.046 86.046 192 88C193.1 89.1 194 90.9 194 92C194 93.1 193.1 94.9 192 96C190.046 97.954 188.667 98 132 98C75.333 98 73.954 97.954 72 96M104 32C102.9 30.9 102 29.1 102 28C102 26.9 102.9 25.1 104 24C105.897 22.103 107.333 22 132 22C156.667 22 158.103 22.103 160 24C161.1 25.1 162 26.9 162 28C162 29.1 161.1 30.9 160 32C158.103 33.897 156.667 34 132 34C107.333 34 105.897 33.897 104 32" />
    <glyph glyph-name="photo-editor"
      unicode="&#xEA18;"
      horiz-adv-x="256" d="M118.763 241.035C100.239 237.649 81.149 225.998 70.226 211.412C60.098 197.888 55.213 184.195 54.286 166.73L53.715 155.959L46.98 152.42C28.555 142.738 14.894 125.529 8.768 104.284C5.612 93.339 5.627 74.867 8.801 63.709C16.483 36.699 36.558 16.574 63.557 8.818C74.784 5.593 93.157 5.575 104.299 8.778C112.297 11.078 121.423 15.266 128.182 19.739L132 22.266L135.818 19.739C142.577 15.266 151.703 11.078 159.701 8.778C170.773 5.595 189.224 5.594 200.291 8.776C221.75 14.946 239.011 28.863 248.907 47.973C255.244 60.209 256 64.051 256 84C256 103.502 255.238 107.606 249.501 118.999C242.301 133.295 230.705 145.229 217.029 152.416L210.302 155.95L209.697 166.725C208.71 184.286 203.683 198.242 193.434 211.877C184.498 223.763 169.335 234.053 153.5 238.977C145.652 241.417 126.922 242.527 118.763 241.035M145.792 228.427C175.447 222.375 198 194.929 198 164.893C198 159.994 197.982 159.967 195.25 160.731C193.738 161.154 186.65 161.492 179.5 161.483C168.729 161.469 165.22 161.067 159.035 159.139C151.172 156.688 142.199 152.484 135.818 148.261L132 145.734L128.182 148.261C121.801 152.484 112.828 156.688 104.965 159.139C98.78 161.067 95.271 161.469 84.5 161.483C77.35 161.492 70.193 161.137 68.596 160.692L65.692 159.885L66.322 168.76C67.664 187.662 76.236 204.015 90.904 215.652C106.204 227.792 126.154 232.435 145.792 228.427M97.66 148.435C105.825 146.749 113.769 143.588 119.312 139.821L122.785 137.462L117.966 131.056C112.784 124.168 108 115.083 105.955 108.25C105.256 105.912 104.374 104 103.997 104C102.658 104 91.128 111.89 86.946 115.667C84.612 117.775 80.547 122.569 77.912 126.32C73.081 133.198 67.126 146.46 68.329 147.662C70.772 150.105 87.446 150.545 97.66 148.435M190.79 149.083C193.149 148.627 195.283 148.05 195.533 147.801C196.514 146.82 191.624 134.728 187.942 129.032C182.329 120.347 176.71 114.62 168.258 108.967C164.174 106.235 160.491 104 160.075 104C159.658 104 158.744 105.912 158.044 108.25C156.11 114.708 150.705 124.891 145.69 131.525L141.19 137.478L145.328 140.217C157.045 147.974 176.702 151.807 190.79 149.083M57.956 139.75C63.204 122.223 78.099 104.451 94.971 95.584L101.698 92.05L102.303 81.275C103.281 63.88 108.377 49.614 118.302 36.485L122.794 30.544L119.317 28.182C113.769 24.412 105.827 21.252 97.66 19.565C54.527 10.655 15.439 44.608 18.321 88.481C19.343 104.033 24.562 116.348 35.287 128.513C39.401 133.179 53.821 144 55.925 144C56.342 144 57.256 142.088 57.956 139.75M214.841 140.025C223.617 134.352 229.353 128.75 234.942 120.395C240.793 111.647 243.358 105.118 245.034 94.704C250.66 59.756 228.036 26.665 193.66 19.565C176.628 16.047 157.57 19.425 144.554 28.269L140.948 30.72L144.991 35.61C154.75 47.413 160.71 63.717 161.699 81.313L162.306 92.126L167.91 94.954C185.026 103.595 200.869 122.197 206.06 139.75C206.751 142.088 207.626 144 208.003 144C208.381 144 211.458 142.211 214.841 140.025M137.447 122.627C142.037 116.194 146.32 107.774 147.535 102.794C148.111 100.432 147.832 99.986 145.347 99.294C143.781 98.857 137.775 98.5 132 98.5C126.225 98.5 120.219 98.857 118.653 99.294C116.168 99.986 115.889 100.432 116.465 102.794C118.23 110.025 129.477 129 132 129C132.494 129 134.945 126.132 137.447 122.627M132 86.5C137.225 86.5 143.48 86.854 145.901 87.286L150.302 88.072L149.716 79.786C148.884 68.039 144.976 56.516 138.693 47.289C135.837 43.094 132.977 39.488 132.339 39.277C130.817 38.773 122.663 50.253 119.563 57.261C116.629 63.895 114 76.046 114 82.97L114 88.024L118.25 87.262C120.588 86.843 126.775 86.5 132 86.5" />
    <glyph glyph-name="photo-editor-2"
      unicode="&#xEA19;"
      horiz-adv-x="256" d="M56 176A72 72 0 0 1 200 176A72 72 0 0 1 56 176M128 88C87.144 88 52.8 116.032 42.936 153.84C17.664 142.664 0 117.416 0 88C0 48.232 32.232 16 72 16C111.768 16 144 48.232 144 88C144 88.512 143.936 89.008 143.92 89.52C138.752 88.568 133.44 88 128 88zM213.064 153.84C205.904 126.392 185.848 104.16 159.728 94.008C159.864 92.024 160 90.024 160 88C160 66.52 152.24 46.832 139.408 31.536C151.68 21.84 167.144 16 184 16C223.768 16 256 48.232 256 88C256 117.416 238.336 142.664 213.064 153.84z" />
    <glyph glyph-name="shape-star"
      unicode="&#xEA1A;"
      horiz-adv-x="256" d="M127.323 233.675C126.32 232.397 118.342 216.667 109.592 198.72C95.581 169.978 93.376 166.026 91.092 165.557C89.667 165.264 72.525 162.737 53 159.942C22.187 155.532 17.269 154.591 15.75 152.82C14.787 151.697 14 149.839 14 148.69C14 147.276 22.932 137.86 41.695 119.497L69.389 92.391L68.379 85.946C67.823 82.4 64.923 65.176 61.934 47.668L56.5 15.836L59.269 13.45C61.539 11.494 62.495 11.238 64.578 12.03C65.976 12.561 81.716 20.661 99.557 30.03L131.995 47.064L165.635 29.407C184.137 19.696 200.415 11.75 201.809 11.75C204.621 11.75 207 14.323 207 17.363C207 18.452 204.3 35.012 201 54.164C197.7 73.315 195 89.853 195 90.914C195 92.121 205.1 102.683 222.024 119.171C236.887 133.652 249.301 146.471 249.609 147.657C250.315 150.37 248.598 153.675 246.067 154.479C245.003 154.817 227.651 157.498 207.507 160.438C187.364 163.378 170.713 165.954 170.505 166.162C170.297 166.37 162.879 181.367 154.021 199.488C145.163 217.609 137.19 233.237 136.303 234.218C134.006 236.756 129.526 236.486 127.323 233.675M147.083 186.365C159.652 160.525 161.883 156.561 164.499 155.409C166.15 154.683 180.55 152.251 196.5 150.005C212.45 147.759 226.684 145.69 228.132 145.407C230.57 144.931 228.955 143.103 206.182 120.577L181.599 96.261L187.322 62.986C190.47 44.685 192.872 29.539 192.66 29.327C192.449 29.115 179.009 35.93 162.794 44.471C146.579 53.012 132.721 60 132 60C131.279 60 117.421 53.012 101.206 44.471C84.991 35.93 71.551 29.115 71.34 29.327C71.128 29.539 73.53 44.685 76.678 62.986L82.401 96.261L57.818 120.577C35.045 143.103 33.43 144.931 35.868 145.407C37.316 145.69 51.55 147.759 67.5 150.005C83.45 152.251 97.85 154.683 99.501 155.409C102.117 156.561 104.348 160.525 116.917 186.365C124.846 202.664 131.633 216 132 216C132.367 216 139.154 202.664 147.083 186.365" />
    <glyph glyph-name="shape-star-2"
      unicode="&#xEA1B;"
      horiz-adv-x="256" d="M249.152 162.856L170.4 174.304L135.2 245.664A8.328 8.328 0 0 1 120.848 245.664L85.648 174.304L6.848 162.856A8 8 0 0 1 2.4 149.216L59.392 93.664L45.952 15.2A8 8 0 0 1 57.56 6.8L128 43.832L198.44 6.8A8 8 0 0 1 210.048 15.2L196.592 93.6L253.6 149.216A8 8 0 0 1 249.16 162.856z" />
    <glyph glyph-name="chat"
      unicode="&#xEA1C;"
      horiz-adv-x="256" d="M8 232C6.033 230.033 6 228.667 6 148C6 67.333 6.033 65.967 8 64C9.932 62.068 11.349 61.999 49.75 61.978L89.5 61.956L109 38.439C120.833 24.168 129.39 14.697 130.765 14.349C132.01 14.034 133.895 14.389 134.952 15.138C136.01 15.887 145.286 26.625 155.566 39L174.257 61.5L214.879 62L255.5 62.5L255.756 147.437C255.958 214.726 255.75 232.541 254.756 233.172C254.065 233.611 198.713 233.976 131.75 233.985C11.323 234 9.978 233.978 8 232M246 148L246 74L207.955 74L169.909 74L167.702 71.75C166.489 70.512 158.115 60.613 149.095 49.75C140.075 38.887 132.382 30 132 30C131.618 30 123.925 38.887 114.905 49.75C105.885 60.613 97.511 70.512 96.298 71.75L94.091 74L56.045 74L18 74L18 148L18 222L132 222L246 222L246 148" />
    <glyph glyph-name="chat-content"
      unicode="&#xEA1D;"
      horiz-adv-x="256" d="M8 232C6.033 230.033 6 228.667 6 148C6 67.333 6.033 65.967 8 64C9.932 62.068 11.349 61.999 49.75 61.978L89.5 61.956L109 38.439C120.833 24.168 129.39 14.697 130.765 14.349C132.01 14.034 133.895 14.389 134.952 15.138C136.01 15.887 145.286 26.625 155.566 39L174.257 61.5L214.879 62L255.5 62.5L255.756 147.437C255.958 214.726 255.75 232.541 254.756 233.172C254.065 233.611 198.713 233.976 131.75 233.985C11.323 234 9.978 233.978 8 232M246 148L246 74L207.955 74L169.909 74L167.702 71.75C166.489 70.512 158.115 60.613 149.095 49.75C140.075 38.887 132.382 30 132 30C131.618 30 123.925 38.887 114.905 49.75C105.885 60.613 97.511 70.512 96.298 71.75L94.091 74L56.045 74L18 74L18 148L18 222L132 222L246 222L246 148M64 176C62.9 174.9 62 173.1 62 172C62 170.9 62.9 169.1 64 168C65.96 166.04 67.333 166 132 166C196.667 166 198.04 166.04 200 168C202.546 170.546 202.546 173.454 200 176C198.04 177.96 196.667 178 132 178C67.333 178 65.96 177.96 64 176M64 128C62.9 126.9 62 125.1 62 124C62 122.9 62.9 121.1 64 120C65.93 118.07 67.333 118 104 118C140.667 118 142.07 118.07 144 120C145.1 121.1 146 122.9 146 124C146 125.1 145.1 126.9 144 128C142.07 129.93 140.667 130 104 130C67.333 130 65.93 129.93 64 128" />
    <glyph glyph-name="chat-2"
      unicode="&#xEA1E;"
      horiz-adv-x="256" d="M248 240H8C3.2 240 0 236.8 0 232V72C0 67.2 3.2 64 8 64H84L121.6 19.2C123.2 17.6 125.6 16 128 16S132.8 16.8 134.4 19.2L172 64H248C252.8 64 256 67.2 256 72V232C256 236.8 252.8 240 248 240z" />
    <glyph glyph-name="camera-20"
      unicode="&#xEA1F;"
      horiz-adv-x="256" d="M16 240H72V224H16V240zM248 208H211.312L181.656 237.656C180.16 239.16 178.128 240 176 240H128C125.872 240 123.84 239.16 122.344 237.656L92.688 208H8C3.576 208 0 204.416 0 200V24C0 19.584 3.576 16 8 16H248C252.424 16 256 19.584 256 24V200C256 204.416 252.424 208 248 208zM52 144C45.376 144 40 149.376 40 156S45.376 168 52 168S64 162.624 64 156S58.624 144 52 144zM152 56C121.072 56 96 81.072 96 112S121.072 168 152 168S208 142.928 208 112S182.928 56 152 56z" />
    <glyph glyph-name="connect"
      unicode="&#xEA20;"
      horiz-adv-x="256" d="M92.872 120.704L109.704 147.64C115.352 145.304 121.528 144 128 144C154.472 144 176 165.528 176 192S154.472 240 128 240S80 218.472 80 192C80 177.744 86.28 164.96 96.176 156.168L79.312 129.192L92.872 120.704zM48 112C21.528 112 0 90.472 0 64S21.528 16 48 16C71.736 16 91.448 33.336 95.28 56H136V72H95.28C91.448 94.664 71.736 112 48 112zM208 112C201.528 112 195.352 110.696 189.712 108.36L171.4 137.656L157.84 129.168L176.176 99.832C166.28 91.04 160 78.256 160 64C160 37.528 181.528 16 208 16S256 37.528 256 64S234.472 112 208 112z" />
    <glyph glyph-name="heart-2"
      unicode="&#xEA21;"
      horiz-adv-x="256" d="M62.5 232.601C54.284 230.715 45.178 226.889 38.751 222.623C31.817 218.02 21.94 208.124 17.291 201.119C3.567 180.443 2.425 150.311 14.537 128.429C19.606 119.272 28.475 109.795 80.686 57.75C123.629 14.944 128.916 10 131.747 10C134.582 10 140.369 15.443 188.358 63.25C242.782 117.466 246.479 121.598 252.554 135L255.5 141.5L255.5 162.594L255.5 183.688L250.818 193.094C241.572 211.67 227.748 223.935 208.5 230.639C201.29 233.15 199.166 233.427 187 233.441C176.756 233.453 172.053 233.017 167.5 231.632C156.522 228.293 147.248 223.043 139.427 215.739L132 208.802L124.597 215.716C116.847 222.954 108.366 227.813 97.597 231.186C89.477 233.728 70.706 234.486 62.5 232.601M90.5 220.489C102.568 217.944 109.321 213.935 120.188 202.867C126.426 196.514 130.632 193 132 193C133.368 193 137.574 196.514 143.812 202.867C151.137 210.328 155.085 213.501 160 215.875C177.829 224.488 201.154 223.599 216.817 213.711C228.962 206.043 239.371 192.995 243.278 180.542C246.391 170.62 246.391 154.38 243.278 144.458C239.181 131.399 235.94 127.65 182.373 74L131.951 23.5L81.582 74C46.767 108.905 29.939 126.485 27.091 130.928C13.835 151.606 15.517 180.717 31.053 199.5C46.142 217.742 67.601 225.318 90.5 220.489" />
    <glyph glyph-name="heart-2-2"
      unicode="&#xEA22;"
      horiz-adv-x="256" d="M234.488 218.488C204.984 247.984 156.384 247.128 128 215.744C99.608 247.144 51 247.968 21.512 218.488C7.64 204.608 0 186.168 0 166.544C0 146.92 7.64 128.472 21.512 114.608L128 8.12L234.488 114.616C248.36 128.48 256 146.92 256 166.544C256 186.168 248.36 204.608 234.488 218.488z" />
    <glyph glyph-name="share-bold"
      unicode="&#xEA23;"
      horiz-adv-x="256" d="M200.251 248.455C192.233 246.296 187.139 243.3 180.268 236.702C169.866 226.713 165.14 214.402 166.372 200.5C166.713 196.65 167.245 192.375 167.555 191C168.097 188.595 166.646 187.765 129.446 169.195L90.774 149.89L84.137 156.297C76.777 163.403 71.877 166.276 63.32 168.505C52.382 171.354 39.9 169.792 29.837 164.315C24.008 161.142 14.07 151.018 11.133 145.26C4.297 131.86 4.497 115.045 11.648 101.905C14.959 95.822 23.822 86.959 29.905 83.648C39.9 78.208 52.411 76.654 63.32 79.495C71.877 81.724 76.777 84.597 84.137 91.703L90.774 98.11L129.446 78.805C166.669 60.223 168.097 59.406 167.547 57C164.898 45.404 166.267 32.277 171.117 22.772C174.45 16.238 184.491 6.411 191.32 2.998C197.166 0.077 197.692 0 211.91 0.01C225.329 0.019 226.927 0.218 231.825 2.498C239.137 5.903 249.284 15.879 253.002 23.32C255.924 29.167 256 29.691 256 44C256 58.309 255.924 58.833 253.002 64.68C249.596 71.496 239.766 81.548 233.26 84.867C223.388 89.904 211.198 91.245 200.535 88.467C192.191 86.294 186.139 82.709 179.52 76.02L173.773 70.213L134.894 89.356L96.016 108.5L96.758 112.5C97.713 117.647 97.713 130.353 96.758 135.5L96.016 139.5L134.894 158.644L173.773 177.787L179.52 171.98C186.139 165.291 192.191 161.706 200.535 159.533C211.198 156.755 223.388 158.096 233.26 163.133C239.766 166.452 249.596 176.504 253.002 183.32C255.924 189.167 256 189.691 256 204C256 218.309 255.924 218.833 253.002 224.68C249.596 231.496 239.766 241.548 233.26 244.867C223.512 249.84 210.605 251.243 200.251 248.455M223.687 235.844C231.01 233.104 239.06 225.613 242.745 218.109C246.479 210.506 246.625 198.246 243.076 190.24C239.597 182.389 230.77 174.627 222.374 172.034C214.093 169.476 209.907 169.476 201.626 172.034C193.262 174.617 184.425 182.376 180.891 190.24C177.353 198.111 177.495 210.43 181.211 218C189.209 234.294 207.402 241.937 223.687 235.844M63.687 155.844C70.985 153.114 78.517 146.1 82.486 138.339C85.117 133.192 85.468 131.493 85.446 124C85.425 116.799 85 114.631 82.666 109.81C78.696 101.609 70.687 94.602 62.339 92.023C54.094 89.476 49.899 89.478 41.626 92.034C33.262 94.617 24.425 102.376 20.891 110.24C17.353 118.111 17.495 130.43 21.211 138C29.209 154.294 47.402 161.937 63.687 155.844M223.687 75.844C231.01 73.104 239.06 65.613 242.745 58.109C246.479 50.506 246.625 38.246 243.076 30.24C239.597 22.389 230.77 14.627 222.374 12.034C214.093 9.476 209.907 9.476 201.626 12.034C193.262 14.617 184.425 22.376 180.891 30.24C177.353 38.111 177.495 50.43 181.211 58C189.209 74.294 207.402 81.937 223.687 75.844" />
    <glyph glyph-name="share-bold-2"
      unicode="&#xEA24;"
      horiz-adv-x="256" d="M208 96C192 96 178.4 88 169.6 76L94.4 113.6C96 118.4 96.8 122.4 96.8 128S96 137.6 94.4 142.4L169.6 180C178.4 168 192 160 208 160C234.4 160 256 181.6 256 208S234.4 256 208 256S160 234.4 160 208C160 203.2 160.8 198.4 162.4 193.6L87.2 156C77.6 168 64 176 48 176C21.6 176 0 154.4 0 128S21.6 80 48 80C64 80 77.6 88 86.4 100L161.6 62.4C160.8 57.6 160 52.8 160 48C160 21.6 181.6 0 208 0S256 21.6 256 48S234.4 96 208 96z" />
    <glyph glyph-name="bookmark-2"
      unicode="&#xEA25;"
      horiz-adv-x="256" d="M40 248C38.023 246.023 38 244.667 38 128C38 11.333 38.023 9.977 40 8C41.1 6.9 42.819 6 43.82 6C44.821 6 65.071 18.365 88.82 33.478L132 60.956L175.18 33.478C198.929 18.365 219.179 6 220.18 6C221.181 6 222.9 6.9 224 8C225.977 9.977 226 11.333 226 128C226 244.667 225.977 246.023 224 248C222.03 249.97 220.667 250 132 250C43.333 250 41.97 249.97 40 248M214 130.441C214 62.906 213.647 23.1 213.052 23.468C212.53 23.79 194.452 35.292 172.878 49.027C151.304 62.762 132.909 74 132 74C131.091 74 112.696 62.762 91.122 49.027C69.548 35.292 51.47 23.79 50.948 23.468C50.353 23.1 50 62.906 50 130.441L50 238L132 238L214 238L214 130.441" />
    <glyph glyph-name="bookmark-2-2"
      unicode="&#xEA26;"
      horiz-adv-x="256" d="M208 248H48C43.2 248 40 244.8 40 240V16C40 12.8 41.6 10.4 44 8.8C46.4 7.2 49.6 7.2 52 8.8L128 54.4L204 8.8C204.8 8 206.4 8 208 8C209.6 8 210.4 8 212 8.8C214.4 10.4 216 12.8 216 16V240C216 244.8 212.8 248 208 248z" />
    <glyph glyph-name="restore"
      unicode="&#xEA27;"
      horiz-adv-x="256" d="M168 76.688L122.344 122.344C120.84 123.84 120 125.872 120 128V192H136V131.312L179.312 88L168 76.688zM128 240C100.08 240 73.2 229.064 52.816 210.84L21.816 240.192L16 160L95.752 170.176L64.424 199.84C81.784 214.976 104.464 224 128 224C180.936 224 224 180.936 224 128S180.936 32 128 32S32 75.064 32 128H16C16 66.24 66.24 16 128 16S240 66.24 240 128S189.76 240 128 240z" />
    <glyph glyph-name="time-3"
      unicode="&#xEA28;"
      horiz-adv-x="256" d="M113 248.529C92.045 244.99 72.732 236.973 57 225.281C48.771 219.165 34.103 203.792 28.395 195.301C6.47 162.688 0.548 125.184 11.423 87.823C23.22 47.297 57.891 13.536 99 2.545C107.896 0.167 109.995 0.005 132 0.005C154.005 0.005 156.104 0.167 165 2.545C196.228 10.894 223.942 32.227 240.964 61.019C246.039 69.603 251.335 82.543 253.917 92.667C255.735 99.795 256 103.8 255.997 124.167C255.995 145.677 255.806 148.204 253.58 156.514C249.679 171.074 242.547 185.871 233 199.21C228.773 205.117 214.657 219.362 208 224.44C181.667 244.526 144.743 253.888 113 248.529M149.619 236.485C162.318 234.32 171.133 231.497 182.057 226.099C213.854 210.387 236.041 181.832 243.644 146.836C246.326 134.492 246.085 111.641 243.141 99.115C234.68 63.117 210.94 34.483 177.29 19.687C167.009 15.167 160.691 13.3 149.5 11.476C99.984 3.402 49.457 30.582 28.503 76.564C8.308 120.878 17.855 171.118 53.065 205.829C78.054 230.464 115.401 242.321 149.619 236.485M128 184C126.089 182.089 126 180.667 126 152C126 123.333 126.089 121.911 128 120C129.911 118.089 131.333 118 160 118C188.667 118 190.089 118.089 192 120C194.546 122.546 194.546 125.454 192 128C190.103 129.897 188.667 130 164 130L138 130L138 156C138 180.667 137.897 182.103 136 184C134.9 185.1 133.1 186 132 186C130.9 186 129.1 185.1 128 184" />
    <glyph glyph-name="check-circle-07"
      unicode="&#xEA29;"
      horiz-adv-x="256" d="M182.781 175.273L124.023 116.546L105.202 135.273C92.264 148.146 85.696 154 84.19 154C81.359 154 78 150.622 78 147.775C78 144.435 120.659 102 124.016 102C127.419 102 250 224.363 250 227.759C250 230.636 246.642 234 243.77 234C242.155 234 225.32 217.789 182.781 175.273M111.5 225.343C110.4 225.109 105.921 224.229 101.547 223.388C49.451 213.361 11.817 165.081 14.331 111.5C16.031 75.276 33.849 43.681 63.388 24.511C78.214 14.889 90.352 10.087 106.445 7.477C153.146 -0.098 199.908 23.464 221.675 65.536C229.018 79.729 233.994 99.92 233.99 115.5C233.986 130.495 228.3 155.7 223.936 160.064C221.45 162.55 218.527 162.527 216 160C213.513 157.513 213.515 156.723 216.032 149.408C221.651 133.074 223.255 115.427 220.532 99.881C213.199 58.009 182.015 26.893 139.972 19.494C99.503 12.372 57.668 32.798 37.985 69.289C5.975 128.635 41.223 200.825 107.906 212.49C129.055 216.19 149.343 212.951 169.188 202.707C178.692 197.801 179.263 197.637 181.821 199.066C185.171 200.937 185.961 205.827 183.299 208.217C180.049 211.134 166.644 217.825 159 220.346C148.411 223.838 134.258 226.02 123.074 225.884C117.808 225.82 112.6 225.577 111.5 225.343" />
    <glyph glyph-name="check-circle-08"
      unicode="&#xEA2A;"
      horiz-adv-x="256" d="M128 256C57.6 256 0 198.4 0 128S57.6 0 128 0S256 57.6 256 128S198.4 256 128 256zM189.6 162.4L109.6 82.4C108 80.8 106.4 80 104 80S100 80.8 98.4 82.4L66.4 114.4C63.2 117.6 63.2 122.4 66.4 125.6S74.4 128.8 77.6 125.6L104 99.2L178.4 173.6C181.6 176.8 186.4 176.8 189.6 173.6S192.8 165.6 189.6 162.4z" />
    <glyph glyph-name="circle-remove"
      unicode="&#xEA2B;"
      horiz-adv-x="256" d="M128 256C57.6 256 0 198.4 0 128S57.6 0 128 0S256 57.6 256 128S198.4 256 128 256zM181.6 85.6C184.8 82.4 184.8 77.6 181.6 74.4C180 72.8 178.4 72 176 72S172 72.8 170.4 74.4L128 116.8L85.6 74.4C84 72.8 82.4 72 80 72S76 72.8 74.4 74.4C71.2 77.6 71.2 82.4 74.4 85.6L116.8 128L74.4 170.4C71.2 173.6 71.2 178.4 74.4 181.6S82.4 184.8 85.6 181.6L128 139.2L170.4 181.6C173.6 184.8 178.4 184.8 181.6 181.6S184.8 173.6 181.6 170.4L139.2 128L181.6 85.6z" />
    <glyph glyph-name="ic_hourglass_full_24px"
      unicode="&#xEA2C;"
      horiz-adv-x="256" d="M64 234.6666666666667V170.6666666666667H64.1066666666667L64 170.56L106.6666666666667 128L64 85.3333333333333L64.1066666666667 85.2266666666667H64V21.3333333333333H192V85.2266666666667H191.8933333333334L192 85.3333333333333L149.3333333333334 128L192 170.56L191.8933333333334 170.6666666666667H192V234.6666666666667H64z" />
    <glyph glyph-name="ic_edit_24px"
      unicode="&#xEA2D;"
      horiz-adv-x="256" d="M32 72V32H72L189.9733333333333 149.9733333333334L149.9733333333333 189.9733333333334L32 72zM220.9066666666667 180.9066666666667C225.0666666666667 185.0666666666667 225.0666666666667 191.7866666666667 220.9066666666667 195.9466666666667L195.9466666666667 220.9066666666667C191.7866666666667 225.0666666666667 185.0666666666667 225.0666666666667 180.9066666666667 220.9066666666667L161.3866666666667 201.3866666666667L201.3866666666667 161.3866666666667L220.9066666666667 180.9066666666667z" />
    <glyph glyph-name="send"
      unicode="&#xEA2E;"
      horiz-adv-x="256" d="M12 157.6L52.8 127.2L119.2 162.4C123.2 164.8 127.2 159.2 124 156L72 112V36.8C72 29.6 80.8 26.4 85.6 31.2L124.8 73.6L195.2 21.6C200 18.4 206.4 20.8 208 26.4L248 242.4000000000001C248.8 248.8000000000001 243.2 253.6 237.6 251.2000000000001L13.6 171.2000000000001C8 168.8 7.2 160.8 12 157.6z" />
    <glyph glyph-name="pin-3"
      unicode="&#xEA2F;"
      horiz-adv-x="256" d="M119 249.08C85.361 244.197 54.924 220.377 44.1 190.464C32.206 157.592 37.695 129.449 64.28 87C75.781 68.635 94.697 44.145 114.268 22.283C127.57 7.422 129.873 5.5 133.335 6.369C137.438 7.399 162.949 36.345 180.76 60.178C198.992 84.575 211.562 105.677 219.069 124.487C228.847 148.986 227.947 174.426 216.481 197.721C204.67 221.715 183.955 238.472 156.077 246.584C146.763 249.295 128.806 250.503 119 249.08M154.451 234.54C188.902 224.35 211.192 197.036 213.648 162C215.319 138.15 202.401 109.181 171.884 68.345C161.519 54.475 148.674 38.9 138.092 27.371L131.786 20.5L128.143 24.621C80.67 78.328 56.291 116.848 51.051 146.434C48.07 163.262 52.609 185.106 62.203 200.104C73.246 217.366 94.286 231.895 114 235.871C117.025 236.481 120.4 237.187 121.5 237.439C122.6 237.692 128.45 237.738 134.5 237.543C142.677 237.278 147.797 236.508 154.451 234.54M123.792 184.657C111.34 181.149 102 168.878 102 156.027C102 140.208 116.195 126 132 126C147.792 126 162 140.208 162 156C162 166.798 154.288 178.773 144.563 183.075C138.784 185.631 129.704 186.323 123.792 184.657M140.03 171.75C153.153 165.121 153.153 146.879 140.03 140.25C134.386 137.399 129.614 137.399 123.97 140.25C110.847 146.879 110.847 165.121 123.97 171.75C126.42 172.987 130.033 174 132 174C133.967 174 137.58 172.987 140.03 171.75" />
    <glyph glyph-name="phone-2"
      unicode="&#xEA30;"
      horiz-adv-x="256" d="M27.775 220.225L6 198.449L6.031 191.475C6.048 187.639 6.688 179.325 7.452 173C13.074 126.46 33.089 86.337 67.1 53.428C89.333 31.915 114.115 17.065 143.931 7.388C161.204 1.782 172.756 0 191.832 0L208.563 0L229.281 20.804C244.834 36.421 250 42.214 250 44.036C250 47.541 191.546 106 188.041 106C186.235 106 180.833 101.237 166.793 87.268L147.967 68.536L112.252 104.252L76.536 139.967L95.268 158.793C109.237 172.833 114 178.235 114 180.041C114 183.571 55.539 242 52.007 242C50.14 242 44.321 236.771 27.775 220.225M75.987 203.513L99.457 180.027L80.729 161.203C66.74 147.144 62 141.766 62 139.953C62 136.432 144.432 54 147.953 54C149.766 54 155.144 58.74 169.206 72.731L188.032 91.463L211.759 67.736L235.486 44.008L218.504 27.004L201.522 10L196.011 10.018C188.752 10.042 172.169 12.435 160.696 15.113C127.806 22.79 96.7 40.482 71.792 65.679C40.094 97.745 21.728 138.401 18.409 183.852L17.726 193.204L34.602 210.102C43.884 219.396 51.711 227 51.997 227C52.282 227 63.078 216.431 75.987 203.513" />
    <glyph glyph-name="link-72"
      unicode="&#xEA31;"
      horiz-adv-x="256" d="M151.584 151.584C145.504 157.664 138.344 161.984 130.736 164.68L127.032 160.976C124.16 158.104 122.216 154.592 121.096 150.8C128.12 149.168 134.808 145.728 140.272 140.272C147.824 132.72 151.984 122.672 151.984 111.984C151.984 101.304 147.824 91.256 140.272 83.704L100.28 43.72C92.728 36.168 82.68 32 72 32S51.272 36.168 43.712 43.72S32 61.32 32 72S36.16 92.728 43.712 100.28L73.48 130.056C72.576 134.608 72 139.256 72 144.008C72 146.568 72.152 149.104 72.416 151.616C72.408 151.608 72.392 151.6 72.384 151.584L32.4 111.592C21.824 101.016 16 86.96 16 72S21.824 42.984 32.4 32.408S57.04 16 72 16S101.016 21.832 111.6 32.408L151.592 72.392C162.168 82.968 167.992 97.032 167.992 111.984C167.992 126.944 162.168 141.008 151.584 151.584zM223.592 223.592C201.76 245.424 166.232 245.424 144.4 223.592L104.408 183.6C93.832 173.024 88.008 158.968 88.008 144.008S93.832 114.984 104.408 104.408C110.488 98.328 117.648 94.008 125.256 91.312L128.96 95.016C131.832 97.888 133.776 101.4 134.896 105.184C127.872 106.816 121.184 110.256 115.72 115.72C108.168 123.272 104.008 133.32 104.008 144.008C104.008 154.688 108.168 164.736 115.72 172.288L155.712 212.28C163.512 220.08 173.752 223.976 184 223.976C194.24 223.976 204.488 220.08 212.28 212.28C219.832 204.728 223.992 194.68 223.992 183.992C223.992 173.312 219.832 163.264 212.28 155.712L182.56 125.984C183.472 121.416 183.992 116.744 183.992 111.984C183.992 109.424 183.84 106.888 183.576 104.376C183.584 104.384 183.592 104.392 183.608 104.4L223.6 144.392C234.176 154.968 240 169.024 240 183.984S234.168 213.016 223.592 223.592z" />
    <glyph glyph-name="menu-dots"
      unicode="&#xEA32;"
      horiz-adv-x="256" d="M8 128A24 24 0 0 1 56 128A24 24 0 0 1 8 128M104 128A24 24 0 0 1 152 128A24 24 0 0 1 104 128M200 128A24 24 0 0 1 248 128A24 24 0 0 1 200 128" />
    <glyph glyph-name="walk"
      unicode="&#xEA33;"
      horiz-adv-x="256" d="M112 224A26.666666666666664 26.666666666666664 0 0 1 165.3333333333333 224A26.666666666666664 26.666666666666664 0 0 1 112 224M92.9546666666667 150.6133333333334C94.0533333333333 156.688 95.184 162.9386666666667 96.384 169.5733333333333A31.733333333333334 31.733333333333334 0 0 0 97.3226666666667 173.6693333333333L69.1946666666667 159.6053333333333A10.666666666666666 10.666666666666666 0 0 1 64.0533333333333 154.0053333333334L53.1573333333333 126.6133333333334A7.968 7.968 0 0 1 67.9573333333333 120.7093333333334L78.1546666666667 146.2026666666667zM166.4 83.2L141.0453333333333 102.2133333333333L131.872 73.9733333333333L149.3333333333333 64V21.3333333333333A10.666666666666666 10.666666666666666 0 0 1 170.6666666666667 21.3333333333333V74.6666666666667A10.666666666666666 10.666666666666666 0 0 1 166.4 83.2zM208.4426666666667 154.224A8 8 0 0 1 198.0426666666666 158.6826666666667L172.6133333333334 148.6933333333333L144 179.3333333333334A21.168 21.168 0 0 1 106.9493333333333 167.9413333333334S80 19.2 80 16A10.666666666666666 10.666666666666666 0 0 1 100.9066666666667 13.1733333333333L144.56 147.5733333333333L165.0826666666667 133.5466666666667A10.666666666666666 10.666666666666666 0 0 1 175.0613333333334 132.448L203.984 143.8293333333333A8 8 0 0 1 208.4426666666667 154.224z" />
    <glyph glyph-name="tail-left"
      unicode="&#xEA34;"
      horiz-adv-x="256" d="M10.344 133.656L88 211.312L99.312 200L35.312 136H248V120H35.312L99.312 56L88 44.688L10.344 122.344C7.216 125.472 7.216 130.528 10.344 133.656z" />
    <glyph glyph-name="camera-ban-37"
      unicode="&#xEA35;"
      horiz-adv-x="256" d="M216.824 217.305C203.202 203.723 191.89 192.81 191.686 193.055C191.481 193.3 186.468 200.025 180.544 208C174.62 215.975 168.874 223.288 167.776 224.25C165.957 225.844 162.714 226 131.413 226L97.047 226L85 210L72.953 194L41.477 194C11.333 194 9.915 193.915 8 192C6.036 190.036 6 188.667 6 116C6 43.333 6.036 41.964 8 40C9.805 38.195 11.333 38 23.697 38L37.394 38L25.697 26.157C18.042 18.407 14 13.569 14 12.157C14 9.356 17.391 6 20.222 6C21.813 6 33.966 17.511 63.078 46.59L103.712 87.18L109.106 84.139C122.66 76.499 139.505 76.115 153.26 83.133C159.018 86.07 169.142 96.008 172.315 101.837C179.891 115.757 179.718 132.955 171.861 146.894L168.82 152.288L209.41 192.922C238.489 222.034 250 234.187 250 235.778C250 238.628 246.638 242 243.796 242C242.252 242 234.174 234.604 216.824 217.305M171.51 199.987C177.319 192.28 182.287 185.416 182.549 184.733C182.811 184.051 177.909 178.391 171.657 172.156L160.288 160.82L154.894 163.861C141.34 171.501 124.495 171.885 110.74 164.867C104.982 161.93 94.858 151.992 91.685 146.163C84.108 132.241 84.282 115.045 92.142 101.101L95.186 95.702L72.351 72.851L49.516 50L33.758 50L18 50L18 116L18 182L47.889 182C74.928 182 77.969 182.167 79.776 183.75C80.874 184.713 86.561 191.912 92.413 199.75L103.053 214L132 214L160.947 214L171.51 199.987M224 192C222.9 190.9 222 189.1 222 188C222 186.9 222.9 185.1 224 184C225.733 182.267 227.333 182 236 182L246 182L246 116L246 50L168 50C91.333 50 89.966 49.966 88 48C85.452 45.452 85.454 42.546 88.006 39.994C89.985 38.015 91.092 37.992 172.756 38.244L255.5 38.5L255.756 115.437C255.959 176.325 255.75 192.541 254.756 193.172C254.065 193.61 247.313 193.976 239.75 193.985C227.322 193.999 225.808 193.808 224 192M143.212 155.995C146.121 154.893 149.175 153.554 150 153.02C151.2 152.244 146.797 147.34 128.008 128.525C115.087 115.586 104.23 105 103.881 105C103.532 105 102.184 107.363 100.886 110.25C97.353 118.111 97.497 130.435 101.211 138C109.106 154.083 127.485 161.958 143.212 155.995M163.697 136.171C166.369 129.248 166.071 117.065 163.063 110.24C159.606 102.395 150.783 94.631 142.374 92.034C138.753 90.915 134.118 90 132.076 90C127.674 90 118.474 92.547 115.118 94.695C112.739 96.217 112.774 96.258 136.067 119.567C153.494 137.006 159.714 142.652 160.647 141.878C161.333 141.309 162.706 138.74 163.697 136.171" />
    <glyph glyph-name="multiple-19"
      unicode="&#xEA36;"
      horiz-adv-x="256" d="M75.773 224.445C58.164 220.176 43.363 205.008 39.392 187.161C33.88 162.384 47.748 133.647 70.688 122.309C77.954 118.719 78.85 118.522 87.926 118.534C96.53 118.546 98.158 118.859 104 121.626C124.024 131.112 138.077 153.843 137.925 176.5C137.71 208.467 107.141 232.049 75.773 224.445M181.024 216.461C173.627 214.387 167.485 210.631 161.591 204.58C145.02 187.568 146.711 159.064 165.471 139.178C178.045 125.849 192.904 122.618 207.405 130.061C216.532 134.746 226.74 147.468 231.171 159.68C234.251 168.167 234.243 183.356 231.155 191.174C226.93 201.869 216.786 211.7 206 215.552C199.466 217.886 187.637 218.316 181.024 216.461M96.201 212.878C102.726 211.497 106.226 209.783 111.888 205.195C121.525 197.387 126.946 184.323 125.659 172.008C123.993 156.073 113.694 140.05 100.784 133.309C96.385 131.012 94.244 130.55 88 130.55C81.756 130.55 79.615 131.012 75.216 133.309C58.209 142.189 47.08 165.528 51.014 184.066C53.141 194.088 61.613 205.105 71 210.054C77.64 213.554 87.687 214.68 96.201 212.878M202.292 203.992C225.579 195.279 228.522 164.66 207.907 145.574C197.251 135.709 186.762 135.697 176.134 145.537C159.725 160.729 157.433 183.528 170.956 197.051C179.313 205.408 191.369 208.079 202.292 203.992M170 103.984C157.574 101.788 142.86 96.831 138.098 93.235C134.853 90.785 134.484 90.727 130.098 91.976C96.451 101.561 59.187 99.318 30.5 85.981C19.588 80.907 14.868 76.536 10.278 67.25L6.5 59.608L6.151 42.903C5.819 27.024 5.906 26.094 7.901 24.099C9.997 22.003 10.108 22 88 22C165.892 22 166.003 22.003 168.099 24.099C170.094 26.094 170.18 27.022 169.844 42.849C169.499 59.035 169.403 59.682 166.404 66C162.563 74.092 159.268 78.036 152.891 82.167L147.909 85.396L152.705 87.281C178.753 97.525 226.852 94.618 240.103 82C244.384 77.923 245.987 73.096 245.994 64.25L246 58L220 58C195.333 58 193.897 57.897 192 56C189.449 53.449 189.455 50.545 192.014 47.986C193.958 46.042 195.104 45.98 224.764 46.236L255.5 46.5L255.774 63.253C256.075 81.612 255.826 82.712 249.826 89.545C238.763 102.146 199.646 109.221 170 103.984M103.5 84.973C122.07 82.887 143.47 75.53 150.019 68.981C156.051 62.949 157.384 58.979 157.822 45.75L158.211 34L88 34L17.789 34L18.178 45.75C18.777 63.845 22.68 69.698 38.514 76.242C58.778 84.616 80.586 87.546 103.5 84.973" />
    <glyph glyph-name="centralize"
      unicode="&#xEA37;"
      horiz-adv-x="256" d="M256 80L221.656 45.656L253.656 13.656L242.344 2.344L210.344 34.344L176 0L176 80zM13.656 2.344L2.344 13.656L34.344 45.656L0 80L80 80L80 0L45.656 34.344zM256 176L221.656 210.344L253.656 242.344L242.344 253.656L210.344 221.656L176 256L176 176zM13.656 253.656L2.344 242.344L34.344 210.344L0 176L80 176L80 256L45.656 221.656zM128 80C101.528 80 80 101.528 80 128S101.528 176 128 176S176 154.472 176 128S154.472 80 128 80z" />
    <glyph glyph-name="multiple-19-2"
      unicode="&#xEA38;"
      horiz-adv-x="256" d="M152 180C152 160.12 168.12 136 188 136S224 160.12 224 180S207.88 216 188 216S152 199.88 152 180zM128 180C128 155.696 108.304 128 84 128S40 155.696 40 180S59.696 224 84 224S128 204.304 128 180zM235.992 110.976C225.664 115.096 208.96 120 188 120C172.552 120 159.44 117.328 149.464 114.28C172.616 103.712 184 83.368 184 62.52V56H256V81.296C256 94.488 248.152 106.136 235.992 110.976zM145.64 98.44C132.944 104.624 111.944 112 84 112S35.056 104.624 22.36 98.44C8.776 91.824 0 77.72 0 62.52V32H168V62.52C168 77.72 159.224 91.824 145.64 98.44z" />
    <glyph glyph-name="alert-circle-i"
      unicode="&#xEA39;"
      horiz-adv-x="256" d="M128 256C57.424 256 0 198.576 0 128S57.424 0 128 0S256 57.424 256 128S198.576 256 128 256zM144 200C152.84 200 160 192.84 160 184S152.84 168 144 168S128 175.16 128 184S135.16 200 144 200zM158.104 63.632C143.552 57.904 139.304 56 129.96 56C122.328 56 116.392 57.864 112.16 61.584C103.8 68.944 105.208 79.568 107.824 90.448L115.696 118.312C117.216 124.048 120.296 135.768 115.984 139.88C111.672 143.992 101.632 141.392 95.792 139.216L97.896 147.8C106.328 151.232 116.984 155.432 126.08 155.432C139.76 155.432 149.768 148.592 149.768 135.68C149.768 134.472 149.624 132.344 149.344 129.288C148.816 123.68 148.656 124.048 139.92 93.12C138.944 89.72 137.432 82.496 137.432 79C137.432 65.536 153.088 68.864 160.208 72.224L158.104 63.632z" />
    <glyph glyph-name="pin-search"
      unicode="&#xEA3A;"
      horiz-adv-x="256" d="M103 249.065C73.126 244.651 46.954 226.607 33.057 200.843C23.812 183.703 20.153 163.306 23.04 145C27.869 114.386 57.024 67.328 100.947 19.252C112.216 6.918 115.115 4.921 118.849 6.919C122.268 8.749 137 25.852 137 27.991C137 30.741 133.518 34 130.58 34C128.864 34 126.375 32.036 122.029 27.25L115.898 20.5L110.915 26C68.58 72.722 41.182 115.661 35.355 144.42C30.274 169.493 40.844 199.58 60.78 216.793C87.172 239.581 122.009 244.26 152.5 229.112C179.506 215.695 195.459 191.996 197.642 162.054C198.332 152.593 199.699 150 204 150C210.152 150 211.334 155.977 208.473 172.619C206.489 184.162 204.655 189.745 199.652 199.466C187.698 222.694 165.24 240.331 139.174 246.963C129.902 249.322 111.843 250.371 103 249.065M107.792 184.657C91.027 179.933 81.951 161.898 88.086 145.499C92.236 134.407 104.272 126 116 126C131.792 126 146 140.208 146 156C146 166.798 138.288 178.773 128.563 183.075C122.784 185.631 113.704 186.323 107.792 184.657M124.03 171.75C137.153 165.121 137.153 146.879 124.03 140.25C118.386 137.399 113.614 137.399 107.97 140.25C94.847 146.879 94.847 165.121 107.97 171.75C110.42 172.987 114.033 174 116 174C117.967 174 121.58 172.987 124.03 171.75M176.105 120.417C167.981 118.233 161.666 114.363 155.15 107.578C148.553 100.708 145.683 95.719 143.495 87.32C140.646 76.382 142.208 63.9 147.685 53.837C150.858 48.008 160.982 38.07 166.74 35.133C180.49 28.118 197.34 28.499 210.88 36.131L216.261 39.164L232.947 22.582C242.124 13.462 250.354 6 251.235 6C255.053 6 256 7.161 256 11.846L256 16.477L240.408 32.092L224.817 47.706L227.859 53.103C235.501 66.66 235.885 83.503 228.867 97.26C225.93 103.018 215.992 113.142 210.163 116.315C200.114 121.784 187.042 123.359 176.105 120.417M199.687 107.844C207.01 105.104 215.06 97.613 218.745 90.109C222.479 82.506 222.625 70.246 219.076 62.24C215.597 54.389 206.77 46.627 198.374 44.034C190.093 41.476 185.907 41.476 177.626 44.034C169.262 46.617 160.425 54.376 156.891 62.24C153.353 70.111 153.495 82.43 157.211 90C165.209 106.294 183.402 113.937 199.687 107.844" />
    <glyph glyph-name="circle-add"
      unicode="&#xEA3B;"
      horiz-adv-x="256" d="M128 256C57.6 256 0 198.4 0 128S57.6 0 128 0S256 57.6 256 128S198.4 256 128 256zM184 120H136V72C136 67.2 132.8 64 128 64S120 67.2 120 72V120H72C67.2 120 64 123.2 64 128S67.2 136 72 136H120V184C120 188.8 123.2 192 128 192S136 188.8 136 184V136H184C188.8 136 192 132.8 192 128S188.8 120 184 120z" />
    <glyph glyph-name="flick-left"
      unicode="&#xEA3C;"
      horiz-adv-x="256" d="M32.465 239.017C31.346 238.581 29.948 237.611 29.357 236.862C28.136 235.312 20 198.764 20 194.826C20 193.407 20.578 191.765 21.285 191.179C21.992 190.592 32.195 188.062 43.959 185.555C63.648 181.361 65.534 181.12 67.674 182.522C70.53 184.393 70.787 188.978 68.17 191.346C67.164 192.257 60.976 194.175 54.42 195.609C47.864 197.044 42.342 198.364 42.148 198.544C41.954 198.724 46.904 201.361 53.148 204.405C76.927 215.998 97.638 220.908 126.246 221.735C156.257 222.603 175.339 219.005 202.913 207.281L213.326 202.853L215.913 204.777C218.873 206.978 219.736 210.408 217.89 212.633C213.172 218.317 180.07 229.4 158.5 232.518C145.15 234.448 117.591 234.413 104.128 232.45C83.016 229.372 62.292 222.809 44.047 213.422C39.397 211.03 35.448 209.219 35.269 209.398C35.091 209.576 36.164 215.229 37.654 221.961C39.548 230.517 40.067 234.671 39.377 235.765C37.691 238.436 34.649 239.868 32.465 239.017M104.421 196.616C96.588 192.968 92 185.869 92 177.396C92 174.679 96.148 159.567 103.014 137.275C109.071 117.606 113.843 101.033 113.618 100.447C113.393 99.86 110.458 98.547 107.097 97.529C95.947 94.153 89.708 86.191 89.836 75.5C89.908 69.458 98.531 42.364 102.58 35.454C107.086 27.765 114.586 21.035 130.772 10.156C145.397 0.326 146.243 -0.095 150.772 0.196C155.125 0.476 155.526 0.723 155.822 3.31C155.999 4.856 155.585 6.795 154.901 7.619C154.218 8.443 146.978 13.666 138.813 19.226C130.648 24.786 122.288 30.784 120.234 32.555C114.434 37.554 110.517 45.223 105.56 61.279C101.201 75.397 101.063 76.214 102.465 79.57C103.557 82.185 105.103 83.601 108.515 85.11C111.036 86.225 114.277 87.219 115.719 87.318C118.18 87.489 118.509 86.955 121.133 78.513C123.979 69.36 125.701 67 129.536 67C132.089 67 135 69.916 135 72.475C135 73.474 128.025 96.878 119.5 124.484C110.975 152.09 104 176.033 104 177.692C104 179.495 104.971 181.756 106.415 183.314C111.093 188.361 117.75 187.982 121.469 182.456C122.586 180.797 127.303 167.141 131.951 152.111C138.402 131.251 140.902 124.455 142.51 123.401C144.339 122.203 148.91 122.547 177.059 126.001C194.901 128.19 211.427 129.986 213.782 129.991C221.58 130.007 227.372 126.162 230.353 118.986C231.15 117.069 233.684 102.675 235.983 87C238.882 67.236 240.646 57.964 241.737 56.75C244.065 54.16 248.631 54.507 250.539 57.419C252.014 59.67 251.808 61.973 247.586 90.413C242.831 122.443 241.979 125.537 236.063 132.276C231.759 137.177 223.866 141.115 217.179 141.697C213.776 141.993 199.31 140.737 181.082 138.564C164.352 136.569 150.338 135.288 149.94 135.718C149.542 136.148 146.412 145.725 142.984 157C139.556 168.275 135.854 179.975 134.756 183C132.103 190.312 126.889 195.658 120.586 197.53C113.753 199.56 110.327 199.366 104.421 196.616" />
    <glyph glyph-name="flick-right"
      unicode="&#xEA3D;"
      horiz-adv-x="256" d="M208 245C205.361 242.361 205.417 241.767 209.5 229.136C211.425 223.182 213 217.832 213 217.248C213 216.663 209.505 217.659 205.232 219.461C167.291 235.463 120.953 238.271 80.937 226.995C67.344 223.164 52.932 217.28 41.125 210.74C30.994 205.128 28.918 202.671 30.805 198.528C32.885 193.963 35.791 194.354 48.116 200.858C74.483 214.771 95.736 220.37 127 221.638C143.566 222.31 159.91 220.575 176.476 216.385C188.276 213.401 207.544 206.093 206.339 205.058C205.878 204.661 200.393 202.827 194.15 200.981C181.871 197.35 179.201 195.321 180.402 190.536C181.75 185.164 183.632 185.28 206.276 192.131C223.115 197.225 227.572 198.943 228.794 200.808C230.214 202.975 229.928 204.376 224.604 221.317C221.462 231.318 218.404 240.755 217.808 242.288C215.929 247.128 211.384 248.384 208 245M119.047 200.695C117.148 200.09 113.998 197.985 112.047 196.017C110.087 194.04 100.286 177.915 90.138 159.97C80.039 142.112 71.63 127.342 71.453 127.148C71.275 126.955 67.89 128.417 63.931 130.398C55.808 134.462 49.528 135.083 43.218 132.447C37.377 130.007 34.387 126.445 26.412 112.431C12.952 88.776 12.133 83.599 17.031 53.097C20.501 31.487 21.462 29 26.345 29C27.635 29 29.516 29.913 30.526 31.029C32.312 33.002 32.271 33.634 29.04 54.044C24.42 83.232 24.596 84.428 36.725 106.282C43.724 118.89 46.581 122 51.168 122C53.96 122 63.327 117.898 64.363 116.222C64.64 115.773 62.892 112.052 60.478 107.953C55.23 99.039 54.733 94.876 58.615 92.333C60.936 90.812 61.515 90.781 63.766 92.059C65.526 93.059 74.344 107.727 92.586 140C111.694 173.805 119.638 186.976 121.685 188.245C125.806 190.799 129.482 190.435 133.211 187.102C138.961 181.965 138.342 180.003 121.68 150.555C113.606 136.285 107 123.889 107 123.008C107 120.822 110.736 117.421 138.582 94.259C155.244 80.4 163.178 73.144 164.332 70.713C166.417 66.318 166.482 58.833 164.469 54.94C163.627 53.311 154.839 41.746 144.941 29.239C129.592 9.845 126.986 6.059 127.222 3.5C127.487 0.641 127.735 0.489 132.5 0.259L137.5 0.018L155.5 22.977C165.4 35.604 174.507 48.087 175.737 50.718C179.641 59.063 178.524 71.54 173.167 79.426C171.7 81.585 159.7 92.34 146.5 103.326C133.3 114.312 122.105 123.651 121.621 124.079C121.138 124.507 125.922 134.002 132.252 145.179C149.711 176.007 149.989 176.709 147.998 185.006C145.013 197.451 131.627 204.705 119.047 200.695" />
    <glyph glyph-name="ic_wb_iridescent_48px"
      unicode="&#xEA3E;"
      horiz-adv-x="256" d="M53.3333333333333 101.3333333333333H202.6666666666666V165.3333333333334H53.3333333333333V101.3333333333333zM117.3333333333333 250.1333333333334V218.6666666666667H138.6666666666667V250.1333333333334H117.3333333333333zM203.04 223.4666666666667L183.8933333333333 204.32L198.9866666666667 189.2266666666667L218.1333333333333 208.3733333333333L203.04 223.4666666666667zM138.6666666666667 16.5333333333334V48H117.3333333333333V16.5333333333333H138.6666666666667zM218.1333333333333 58.2933333333334L198.9866666666667 77.44L183.8933333333333 62.3466666666667L203.04 43.2L218.1333333333333 58.2933333333334zM37.8666666666667 208.3733333333333L57.0133333333333 189.2266666666667L72.1066666666667 204.32L52.96 223.4666666666667L37.8666666666667 208.3733333333333zM52.96 43.2L72.1066666666667 62.3466666666667L57.0133333333333 77.44L37.8666666666667 58.2933333333334L52.96 43.2z" />
    <glyph glyph-name="ic_more_48px"
      unicode="&#xEA3F;"
      horiz-adv-x="256" d="M234.6666666666667 224H74.6666666666667C67.3066666666667 224 61.4933333333333 220.2666666666667 57.6533333333333 214.6133333333334L0 128.0533333333334L57.6533333333333 41.4933333333333C61.4933333333333 35.84 68 32 75.36 32H234.6666666666667C246.4533333333333 32 256 41.5466666666667 256 53.3333333333333V202.6666666666667C256 214.4533333333333 246.4533333333333 224 234.6666666666667 224zM96 112C87.1466666666667 112 80 119.1466666666667 80 128S87.1466666666667 144 96 144S112 136.8533333333334 112 128S104.8533333333333 112 96 112zM149.3333333333333 112C140.48 112 133.3333333333333 119.1466666666667 133.3333333333333 128S140.48 144 149.3333333333333 144S165.3333333333333 136.8533333333334 165.3333333333333 128S158.1866666666667 112 149.3333333333333 112zM202.6666666666666 112C193.8133333333333 112 186.6666666666666 119.1466666666667 186.6666666666666 128S193.8133333333333 144 202.6666666666666 144S218.6666666666666 136.8533333333334 218.6666666666666 128S211.52 112 202.6666666666666 112z" />
    <glyph glyph-name="image-05"
      unicode="&#xEA40;"
      horiz-adv-x="256" d="M232 256H24C19.584 256 16 252.416 16 248V8C16 3.584 19.584 0 24 0H232C236.416 0 240 3.584 240 8V248C240 252.416 236.416 256 232 256zM208 80H48V224H208V80zM72 184A16 16 0 0 1 104 184A16 16 0 0 1 72 184M72 96H184C186.624 96 189.08 97.288 190.576 99.44C192.072 101.6 192.408 104.352 191.496 106.808L167.496 170.808C166.616 173.144 164.696 174.944 162.304 175.664C159.912 176.384 157.312 175.944 155.296 174.472L67.296 110.472C64.496 108.44 63.32 104.824 64.392 101.528C65.464 98.232 68.536 96 72 96z" />
    <glyph glyph-name="calendar-grid-58"
      unicode="&#xEA41;"
      horiz-adv-x="256" d="M248 232H200V256H184V232H136V256H120V232H72V256H56V232H8C3.576 232 0 228.424 0 224V8C0 3.576 3.576 0 8 0H248C252.424 0 256 3.576 256 8V224C256 228.424 252.424 232 248 232zM240 16H16V176H240V16zM80 48H48C43.584 48 40 51.584 40 56V80C40 84.416 43.584 88 48 88H80C84.416 88 88 84.416 88 80V56C88 51.584 84.416 48 80 48zM80 104H48C43.584 104 40 107.584 40 112V136C40 140.416 43.584 144 48 144H80C84.416 144 88 140.416 88 136V112C88 107.584 84.416 104 80 104zM144 48H112C107.584 48 104 51.584 104 56V80C104 84.416 107.584 88 112 88H144C148.416 88 152 84.416 152 80V56C152 51.584 148.416 48 144 48zM144 104H112C107.584 104 104 107.584 104 112V136C104 140.416 107.584 144 112 144H144C148.416 144 152 140.416 152 136V112C152 107.584 148.416 104 144 104zM208 104H176C171.584 104 168 107.584 168 112V136C168 140.416 171.584 144 176 144H208C212.416 144 216 140.416 216 136V112C216 107.584 212.416 104 208 104z" />
    <glyph glyph-name="menu-bold"
      unicode="&#xEA42;"
      horiz-adv-x="256" d="M16 224C14.148 222.148 14 220.667 14 204C14 187.333 14.148 185.852 16 184C17.977 182.023 19.333 182 132 182C244.667 182 246.023 182.023 248 184C249.852 185.852 250 187.333 250 204C250 220.667 249.852 222.148 248 224C246.023 225.977 244.667 226 132 226C19.333 226 17.977 225.977 16 224M238 204L238 194L132 194L26 194L26 204L26 214L132 214L238 214L238 204M16 144C14.148 142.148 14 140.667 14 124C14 107.333 14.148 105.852 16 104C17.977 102.023 19.333 102 132 102C244.667 102 246.023 102.023 248 104C249.852 105.852 250 107.333 250 124C250 140.667 249.852 142.148 248 144C246.023 145.977 244.667 146 132 146C19.333 146 17.977 145.977 16 144M238 124L238 114L132 114L26 114L26 124L26 134L132 134L238 134L238 124M16 64C14.148 62.148 14 60.667 14 44C14 27.333 14.148 25.852 16 24C17.977 22.023 19.333 22 132 22C244.667 22 246.023 22.023 248 24C249.852 25.852 250 27.333 250 44C250 60.667 249.852 62.148 248 64C246.023 65.977 244.667 66 132 66C19.333 66 17.977 65.977 16 64M238 44L238 34L132 34L26 34L26 44L26 54L132 54L238 54L238 44" />
    <glyph glyph-name="menu-bold-2"
      unicode="&#xEA43;"
      horiz-adv-x="256" d="M240 152H16C11.2 152 8 148.8 8 144V112C8 107.2 11.2 104 16 104H240C244.8 104 248 107.2 248 112V144C248 148.8 244.8 152 240 152zM240 232H16C11.2 232 8 228.8 8 224V192C8 187.2 11.2 184 16 184H240C244.8 184 248 187.2 248 192V224C248 228.8 244.8 232 240 232zM240 72H16C11.2 72 8 68.8 8 64V32C8 27.2 11.2 24 16 24H240C244.8 24 248 27.2 248 32V64C248 68.8 244.8 72 240 72z" />
    <glyph glyph-name="calendar-60"
      unicode="&#xEA44;"
      horiz-adv-x="256" d="M74.6666666666667 250.6666666666667H64C61.0506666666667 250.6666666666667 58.6666666666667 248.2826666666667 58.6666666666667 245.3333333333334V208C58.6666666666667 205.0506666666667 61.0506666666667 202.6666666666667 64 202.6666666666667H74.6666666666667C77.616 202.6666666666667 80 205.0506666666667 80 208V245.3333333333334C80 248.2826666666667 77.616 250.6666666666667 74.6666666666667 250.6666666666667zM192 202.6666666666667H181.3333333333334C178.3893333333334 202.6666666666667 176 205.056 176 208V245.3333333333334C176 248.2773333333334 178.3893333333333 250.6666666666667 181.3333333333334 250.6666666666667H192C194.944 250.6666666666667 197.3333333333334 248.2773333333334 197.3333333333334 245.3333333333334V208C197.3333333333333 205.056 194.944 202.6666666666667 192 202.6666666666667zM240 229.3333333333334H208V197.3333333333334C208 194.3893333333333 205.6106666666667 192 202.6666666666667 192H170.6666666666667C167.7226666666667 192 165.3333333333333 194.3893333333333 165.3333333333333 197.3333333333334V229.3333333333334H90.6666666666667V197.3333333333334C90.6666666666667 194.3893333333333 88.2773333333333 192 85.3333333333333 192H53.3333333333333C50.3893333333333 192 48 194.3893333333333 48 197.3333333333334V229.3333333333334H16C10.1066666666667 229.3333333333334 5.3333333333333 224.56 5.3333333333333 218.6666666666667V16C5.3333333333333 10.1066666666667 10.1066666666667 5.3333333333333 16 5.3333333333333H240C245.8933333333334 5.3333333333333 250.6666666666667 10.1066666666667 250.6666666666667 16V218.6666666666667C250.6666666666667 224.56 245.8933333333333 229.3333333333334 240 229.3333333333334zM234.6666666666667 16H21.3333333333333C18.3893333333333 16 16 18.3893333333333 16 21.3333333333333V165.3333333333334C16 168.2773333333333 18.3893333333333 170.6666666666667 21.3333333333333 170.6666666666667H234.6666666666667C237.6106666666667 170.6666666666667 240 168.2773333333333 240 165.3333333333334V21.3333333333333C240 18.3893333333334 237.6106666666667 16 234.6666666666667 16z" />
    <glyph glyph-name="a-add"
      unicode="&#xEA45;"
      horiz-adv-x="256" d="M109.022 245.859C101.959 244.688 88.82 238.24 82.737 232.958C76.274 227.346 69.203 217.187 66.165 209.146C63.973 203.346 63.598 200.498 63.222 186.768C62.698 167.622 64.133 159.884 70.565 147.188C78.556 131.415 90.953 118.945 103.676 113.881C112.052 110.548 127.948 110.548 136.324 113.881C149.047 118.945 161.444 131.415 169.435 147.188C175.867 159.884 177.302 167.622 176.778 186.768C176.274 205.155 174.526 211.305 166.675 222.308C153.348 240.983 132.066 249.677 109.022 245.859M130.27 237.531C147.442 233.892 162.45 219.965 167.407 203.068C169.611 195.556 169.589 172.997 167.369 164.064C163.024 146.579 150.303 129.713 135.831 122.249C131.01 119.763 129.495 119.5 120 119.5C110.505 119.5 108.99 119.763 104.169 122.249C93.225 127.893 84.238 137.62 77.376 151.246C72.443 161.041 71.032 168.34 71.015 184.145C71.003 194.913 71.414 199.129 72.964 204.145C77.988 220.399 92.664 233.88 109.263 237.486C117.438 239.262 122.054 239.272 130.27 237.531M186.259 105.992C177.7 103.75 171.769 100.459 164.685 94.023L159.5 89.313L152.5 90.095C119.026 93.835 80.342 91.179 48.308 82.942C33.626 79.167 28.65 76.734 21.933 70.044C15.648 63.785 11.701 56.291 10.093 47.566C8.707 40.044 8.668 19.488 10.035 16.934C11.041 15.054 12.784 15 72 15C131.216 15 132.959 15.054 133.965 16.934C135.304 19.436 135.288 19.569 133.429 21.429C132.036 22.821 125.29 23 74.285 23L16.713 23L17.234 35.75C17.795 49.489 18.707 52.807 24.056 60.582C29.73 68.828 37.033 72.216 60.472 77.473C84.528 82.868 116.404 85.111 139.968 83.066C147.376 82.423 153.569 81.764 153.731 81.602C153.893 81.44 152.811 78.201 151.325 74.404C148.946 68.323 148.624 66.128 148.627 56C148.629 46.351 149.004 43.534 150.957 38.5C155.794 26.027 164.304 16.315 175.728 10.226C203.495 -4.574 237.409 8.505 249.043 38.5C250.997 43.537 251.37 46.347 251.37 56C251.37 65.653 250.997 68.463 249.043 73.5C238.976 99.456 212.871 112.966 186.259 105.992M209.201 98.891C231.321 94.263 246.875 71.565 243.185 49.296C239.246 25.526 216.586 8.956 193.296 12.815C169.421 16.772 152.93 39.256 156.795 62.582C160.957 87.7 184.552 104.048 209.201 98.891M197.2 74.8C196.503 74.103 196 70.765 196 66.844L196 60.088L188.855 59.794C183.351 59.568 181.457 59.098 180.61 57.75C179.81 56.478 179.81 55.522 180.61 54.25C181.456 52.904 183.349 52.432 188.812 52.207L195.914 51.914L196.207 44.812C196.432 39.349 196.904 37.456 198.25 36.61C199.522 35.81 200.478 35.81 201.75 36.61C203.096 37.456 203.568 39.349 203.793 44.812L204.086 51.914L211.188 52.207C216.651 52.432 218.544 52.904 219.39 54.25C220.19 55.522 220.19 56.478 219.39 57.75C218.543 59.098 216.649 59.568 211.145 59.794L204 60.088L204 66.844C204 73.703 202.997 76 200 76C199.12 76 197.86 75.46 197.2 74.8" />
    <glyph glyph-name="add-29"
      unicode="&#xEA46;"
      horiz-adv-x="256" d="M144 64C144 75.672 147.176 86.576 152.632 96H80C35.888 96 0 60.112 0 16V8H177.04C157.344 18.912 144 39.888 144 64zM128 120C158.928 120 184 145.072 184 176V192C184 222.928 158.928 248 128 248S72 222.928 72 192V176C72 145.072 97.072 120 128 120zM208 112C181.488 112 160 90.512 160 64C160 37.488 181.488 16 208 16S256 37.488 256 64C256 90.512 234.512 112 208 112zM232 56H216V40H200V56H184V72H200V88H216V72H232V56z" />
    <glyph glyph-name="coins"
      unicode="&#xEA47;"
      horiz-adv-x="256" d="M42.807 240.496C32.572 238.555 23.116 234.66 16.101 229.496C5.845 221.946 6.54 227.564 6.23 149.683C6.045 103.334 6.302 80.593 7.042 77.844C9.346 69.286 22.567 60.294 38.681 56.323C45.827 54.562 68.615 53.854 74.653 55.206L77.806 55.911L78.153 42.706C78.463 30.927 78.754 29.091 80.851 25.719C90.551 10.117 126.086 1.721 153.832 8.474C169.185 12.211 182.637 21.43 184.964 29.811C185.528 31.84 185.991 38.551 185.994 44.725L186 55.95L189.25 55.225C195.452 53.842 218.128 54.551 225.472 56.359C235.293 58.775 246.48 64.427 251.623 69.57L256 73.947L256 131.882L256 189.816L251.639 194.304C246.544 199.546 235.584 205.143 225.472 207.665C215.792 210.08 192.208 210.08 182.528 207.665C166.956 203.78 153.738 194.793 151.228 186.384C150.389 183.573 150 173.717 150 155.293L150 128.317L145.25 129.099C139.142 130.104 124.858 130.104 118.75 129.099L114 128.317L114 171.293C114 201.67 113.651 215.434 112.808 218.247C110.3 226.617 96.938 235.833 81.985 239.507C72.701 241.788 52.328 242.303 42.807 240.496M73.172 228.995C81.345 227.813 89.236 224.941 95.242 220.963C104.904 214.563 103.679 207.117 92 201.262C81.737 196.118 74.241 194.544 60 194.544C45.759 194.544 38.263 196.118 28 201.262C19.869 205.339 16.862 209.839 18.933 214.837C21.269 220.478 34.151 227.202 45.951 228.939C53.823 230.098 65.382 230.122 73.172 228.995M217.172 196.995C225.345 195.813 233.236 192.941 239.242 188.963C248.904 182.563 247.679 175.117 236 169.262C225.737 164.118 218.241 162.544 204 162.544C189.759 162.544 182.263 164.118 172 169.262C163.869 173.339 160.862 177.839 162.933 182.837C165.269 188.478 178.151 195.202 189.951 196.939C197.823 198.098 209.382 198.122 217.172 196.995M27.574 188.104C46.101 180.161 73.899 180.161 92.426 188.104C96.317 189.772 100.063 191.379 100.75 191.675C102.939 192.618 102.378 179.133 100.072 175.35C97.824 171.664 88.771 166.912 79 164.289C70.066 161.891 49.934 161.891 41 164.289C31.229 166.912 22.176 171.664 19.928 175.35C17.622 179.133 17.061 192.618 19.25 191.675C19.938 191.379 23.683 189.772 27.574 188.104M244.246 143.67C242.05 139.896 232.607 134.831 223 132.274C214.05 129.892 193.901 129.9 185 132.289C175.229 134.912 166.176 139.664 163.928 143.35C161.622 147.133 161.061 160.618 163.25 159.675C163.938 159.379 167.693 157.768 171.596 156.095C191.072 147.746 220.762 148.271 239 157.287L245.5 160.5L245.795 153.67C246.021 148.449 245.656 146.094 244.246 143.67M27.574 156.104C46.101 148.161 73.899 148.161 92.426 156.104C96.317 157.772 100.063 159.379 100.75 159.675C102.939 160.618 102.378 147.133 100.072 143.35C97.824 139.664 88.771 134.912 79 132.289C70.066 129.891 49.934 129.891 41 132.289C31.229 134.912 22.176 139.664 19.928 143.35C17.622 147.133 17.061 160.618 19.25 159.675C19.938 159.379 23.683 157.772 27.574 156.104M27.574 124.104C46.101 116.161 73.899 116.161 92.426 124.104C96.317 125.772 100.063 127.379 100.75 127.675C101.438 127.972 102 127.553 102 126.744C102 125.932 99.119 123.856 95.555 122.102C86.434 117.612 80.612 111.668 78.939 105.139C77.287 98.694 76.71 98.493 60 98.522C45.958 98.547 38.471 100.098 28.175 105.117C19.927 109.136 18.009 112.199 18.004 121.357C18.001 126.464 18.319 128.077 19.25 127.675C19.938 127.379 23.683 125.772 27.574 124.104M171.574 124.104C190.101 116.161 217.899 116.161 236.426 124.104C240.317 125.772 244.063 127.379 244.75 127.675C245.681 128.077 245.999 126.464 245.996 121.357C245.991 112.199 244.073 109.136 235.825 105.117C225.529 100.098 218.042 98.547 204 98.522C187.358 98.493 186.707 98.715 185.1 104.988C183.445 111.445 177.34 117.723 168.468 122.09C164.889 123.852 162 125.931 162 126.744C162 127.553 162.563 127.972 163.25 127.675C163.938 127.379 167.683 125.772 171.574 124.104M145.172 116.995C153.345 115.813 161.236 112.941 167.242 108.963C176.904 102.563 175.679 95.117 164 89.262C153.737 84.118 146.241 82.544 132 82.544C117.759 82.544 110.263 84.118 100 89.262C91.869 93.339 88.862 97.839 90.933 102.837C93.269 108.478 106.151 115.202 117.951 116.939C125.823 118.098 137.382 118.122 145.172 116.995M244.246 79.67C242.05 75.896 232.607 70.831 223 68.274C216.107 66.439 194.033 65.792 188.75 67.269L186 68.038L186 77.994L186 87.95L189.25 87.225C191.037 86.826 198.125 86.506 205 86.514C219.595 86.53 229.247 88.451 239 93.281L245.5 96.5L245.795 89.67C246.021 84.449 245.656 82.094 244.246 79.67M27.596 92.095C37.717 87.756 51.038 85.639 64 86.309C69.775 86.607 75.287 87.158 76.25 87.533C77.846 88.154 78 87.326 78 78.126L78 68.038L75.25 67.269C69.936 65.783 47.89 66.439 41 68.289C31.229 70.912 22.176 75.664 19.928 79.35C17.622 83.133 17.061 96.618 19.25 95.675C19.938 95.379 23.693 93.768 27.596 92.095M99.574 76.104C118.101 68.161 145.899 68.161 164.426 76.104C168.317 77.772 172.063 79.379 172.75 79.675C174.939 80.618 174.378 67.133 172.072 63.35C169.824 59.664 160.771 54.912 151 52.289C142.066 49.891 121.934 49.891 113 52.289C103.229 54.912 94.176 59.664 91.928 63.35C89.622 67.133 89.061 80.618 91.25 79.675C91.938 79.379 95.683 77.772 99.574 76.104M99.574 44.104C118.101 36.161 145.899 36.161 164.426 44.104C168.317 45.772 172.063 47.379 172.75 47.675C174.939 48.618 174.378 35.133 172.072 31.35C169.824 27.664 160.771 22.912 151 20.289C142.066 17.891 121.934 17.891 113 20.289C103.229 22.912 94.176 27.664 91.928 31.35C89.622 35.133 89.061 48.618 91.25 47.675C91.938 47.379 95.683 45.772 99.574 44.104" />
    <glyph glyph-name="map"
      unicode="&#xEA48;"
      horiz-adv-x="256" d="M49.353 229.606C27.272 222.902 8.485 216.817 7.603 216.085C6.152 214.881 6 205.413 6 116.378C6 19.333 6.027 17.973 8 16C9.1 14.9 10.686 14 11.524 14C12.362 14 30.284 19.175 51.35 25.5C72.416 31.825 90.537 37 91.618 37C92.7 37 110.974 30.025 132.228 21.5C153.481 12.975 171.369 6 171.979 6C173.093 6 238.084 25.326 249.75 29.127L256 31.163L256 132.062L256 232.962L253.675 233.545C252.201 233.915 236.868 229.775 211.75 222.225L172.149 210.321L132.824 226.125C111.196 234.817 92.6 241.899 91.5 241.863C90.4 241.827 71.434 236.311 49.353 229.606M86 138.229L86 48.459L56.75 39.712C40.662 34.902 25.362 30.32 22.75 29.531L18 28.096L18 117.815L18 207.534L51.75 217.702C70.313 223.295 85.612 227.9 85.75 227.935C85.888 227.971 86 187.603 86 138.229M132.015 213.598L165.5 200.197L165.755 110.598C165.896 61.319 165.889 21 165.741 21C165.592 21 150.402 27.031 131.985 34.402L98.5 47.803L98.245 137.402C98.104 186.681 98.111 227 98.259 227C98.408 227 113.598 220.969 132.015 213.598M246 130.229L246 40.459L216.75 31.712C200.662 26.902 185.362 22.32 182.75 21.531L178 20.096L178 109.815L178 199.534L211.75 209.702C230.313 215.295 245.613 219.9 245.75 219.935C245.887 219.971 246 179.603 246 130.229" />
    <glyph glyph-name="map-2"
      unicode="&#xEA49;"
      horiz-adv-x="256" d="M80 245.952L5.704 223.664C2.32 222.648 0 219.528 0 216V8L80 37.248V245.952zM160 219.816L96 245.416L96 36.184L160 10.584zM256 248L176 218.752V10.048L250.296 32.336C253.68 33.352 256 36.472 256 40V248z" />
    <glyph glyph-name="pin-add"
      unicode="&#xEA4A;"
      horiz-adv-x="256" d="M128 256C80.816 256 32 219.952 32 159.616C32 102.44 118.624 14.112 122.312 10.376C123.816 8.856 125.856 8 128 8S132.184 8.856 133.688 10.376C137.376 14.112 224 102.44 224 159.616C224 219.952 175.184 256 128 256zM168 152H136V120H120V152H88V168H120V200H136V168H168V152z" />
    <glyph glyph-name="map-pin"
      unicode="&#xEA4B;"
      horiz-adv-x="256" d="M252.488 214.624C250.28 216.12 247.472 216.424 245.032 215.432L207.64 200.472C207.824 198.168 208 195.856 208 193.456C208 190.024 207.544 186.504 206.896 182.944L240 196.184V53.416L168 24.616L90.968 55.432C89.064 56.192 86.936 56.192 85.032 55.432L16 27.816V170.584L48.936 183.76C48.384 187.04 48 190.288 48 193.456C48 195.96 48.176 198.376 48.376 200.768L5.032 183.432C1.992 182.208 0 179.272 0 176V16C0 13.344 1.32 10.864 3.512 9.376C4.856 8.464 6.424 8 8 8C9.008 8 10.016 8.184 10.968 8.568L88 39.384L165.032 8.568C166.936 7.808 169.064 7.808 170.968 8.568L250.968 40.568C254.008 41.792 256 44.728 256 48V208C256 210.656 254.68 213.136 252.488 214.624zM128 256C96.536 256 64 232.608 64 193.456C64 157.504 116.384 104.288 122.352 98.336C123.912 96.776 125.96 96 128 96S132.088 96.776 133.648 98.336C139.616 104.28 192 157.504 192 193.456C192 232.608 159.464 256 128 256zM128 168C114.744 168 104 178.744 104 192S114.744 216 128 216S152 205.256 152 192S141.256 168 128 168z" />
    <glyph glyph-name="pizza-slice"
      unicode="&#xEA4C;"
      horiz-adv-x="256" d="M44.8 78.4C68.8 61.6 103.2 56 128 56C157.6 56 190.4 64.8 211.2 78.4L213.6 80L135.2 236C132.8 241.6 124 241.6 120.8 236L41.6 80.8L44.8 78.4zM176 104C176 90.4 165.6 80 152 80S128 90.4 128 104S138.4 128 152 128S176 117.6 176 104zM128 184C136.8 184 144 176.8 144 168S136.8 152 128 152S112 159.2 112 168S119.2 184 128 184zM100 136C106.4 136 112 130.4 112 124S106.4 112 100 112S88 117.6 88 124S93.6 136 100 136zM237.6 34.4L221.6 66.4L220.8 65.6C196.8 49.6 160.8 40 128 40C100.8 40 62.4 46.4 35.2 65.6L34.4 66.4L18.4 34.4C17.6 32.8 17.6 30.4 17.6 28C18.4 25.6 20 24 21.6 23.2C55.2 8 91.2 0 128 0S200.8 8 233.6 23.2C235.2 24 236.8 25.6 237.6 28C239.2 29.6 238.4 32 237.6 34.4z" />
    <glyph glyph-name="croissant"
      unicode="&#xEA4D;"
      horiz-adv-x="256" d="M16 72C14.4 72 12.8 72 11.2 72.8C15.2 57.6 21.6 44 25.6 36.8C28.8 32 33.6 28 39.2 27.2C40 27.2 40.8 27.2 41.6 27.2C46.4 27.2 51.2 28.8 55.2 32.8L92 72H16zM240 72H164L200.8 32.8C204.8 28.8 209.6 27.2 214.4 27.2C215.2 27.2 216 27.2 216.8 27.2C222.4 28 228 31.2 230.4 36.8C235.2 44.8 240.8 57.6 244.8 72.8C243.2 72 241.6 72 240 72zM24.8 163.2C24 164 23.2 165.6 21.6 166.4C9.6 148.8 1.6 128 0 105.6C0 100.8 1.6 96.8 4 93.6C8 89.6 12 88 16 88H101.6L24.8 163.2zM234.4 167.2C233.6 166.4 232.8 164.8 232 164L154.4 88H240C244.8 88 248.8 89.6 251.2 92.8C254.4 96 256 100.8 255.2 104.8C254.4 128 246.4 148.8 234.4 167.2zM217.6 204C193.6 222.4 162.4 232 128 232S62.4 222.4 38.4 204C33.6 200.8 31.2 195.2 30.4 190.4C30.4 184 32 179.2 36 175.2L122.4 90.4C124 88.8 125.6 88 128 88S132 88.8 133.6 90.4L220 175.2C224 179.2 225.6 184 225.6 189.6C224.8 195.2 222.4 200.8 217.6 204z" />
    <glyph glyph-name="cheeseburger"
      unicode="&#xEA4E;"
      horiz-adv-x="256" d="M224 64H32C27.584 64 24 60.424 24 56C24 29.528 45.528 8 72 8H184C210.472 8 232 29.528 232 56C232 60.424 228.416 64 224 64zM228 136H200L168 104L136 136H28C12.536 136 0 123.464 0 108S12.536 80 28 80H228C243.464 80 256 92.536 256 108S243.464 136 228 136zM144 248H112C63.48 248 24 208.52 24 160C24 155.576 27.584 152 32 152H224C228.416 152 232 155.576 232 160C232 208.52 192.52 248 144 248zM80 184C75.584 184 72 187.584 72 192C72 196.416 75.584 200 80 200S88 196.416 88 192C88 187.584 84.416 184 80 184zM128 208C123.584 208 120 211.584 120 216C120 220.416 123.584 224 128 224S136 220.416 136 216C136 211.584 132.416 208 128 208zM176 184C171.584 184 168 187.584 168 192C168 196.416 171.584 200 176 200S184 196.416 184 192C184 187.584 180.416 184 176 184z" />
    <glyph glyph-name="lobster"
      unicode="&#xEA4F;"
      horiz-adv-x="256" d="M241.328 250.464C239.416 252.312 236.72 253.096 234.12 252.544C231.52 252 229.36 250.192 228.36 247.728C223.888 236.752 213.008 220.264 207.96 216.472C202.928 220.168 192.256 236.424 187.656 247.728C186.656 250.192 184.496 251.992 181.896 252.544C179.288 253.096 176.592 252.32 174.688 250.464C165.208 241.312 160 229.072 160 216C160 192.504 176.984 172.936 199.312 168.832C196.536 153.568 185.44 136.872 170.496 129.816C169.504 133.76 168.128 137.64 166.264 141.36L146.736 180.424C143.168 187.56 135.984 192 128 192S112.832 187.56 109.264 180.424L89.736 141.36C87.872 137.632 86.496 133.76 85.504 129.816C70.568 136.872 59.472 153.568 56.688 168.832C79.016 172.936 96 192.504 96 216C96 229.072 90.792 241.312 81.32 250.464C79.416 252.312 76.728 253.096 74.112 252.544C71.512 252 69.352 250.192 68.352 247.728C63.872 236.72 52.944 220.168 47.904 216.432C42.92 219.968 32.4 236.048 27.648 247.728C26.64 250.184 24.488 251.992 21.88 252.536C19.28 253.088 16.576 252.312 14.672 250.456C5.208 241.312 0 229.072 0 216C0 192.056 17.64 172.208 40.592 168.632C43.736 146.472 60.408 121.496 83.944 113.216C84.224 108.304 85.104 103.4 86.704 98.616L101.32 54.768C104.752 55.544 108.32 56 112 56H144C147.68 56 151.248 55.544 154.688 54.76L169.304 98.608C170.904 103.4 171.776 108.304 172.064 113.208C195.592 121.488 212.264 146.472 215.416 168.624C238.36 172.208 256 192.056 256 216C256 229.072 250.792 241.312 241.328 250.464zM144 40H112C94.352 40 80 25.648 80 8C80 3.576 83.584 0 88 0H168C172.416 0 176 3.576 176 8C176 25.648 161.648 40 144 40z" />
    <glyph glyph-name="tacos"
      unicode="&#xEA50;"
      horiz-adv-x="256" d="M128 184C57.6 184 0 127.2 0 57.6V24C0 19.2 3.2 16 8 16H248C252.8 16 256 19.2 256 24V57.6C256 127.2 198.4 184 128 184zM85.6 98.4L77.6 90.4C76 88.8 74.4 88 72 88S68 88.8 66.4 90.4C63.2 93.6 63.2 98.4 66.4 101.6L74.4 109.6C77.6 112.8 82.4 112.8 85.6 109.6S88.8 101.6 85.6 98.4zM141.6 58.4C140 56.8 138.4 56 136 56C134.4 56 132 56.8 130.4 58.4L122.4 65.6C119.2 68.8 119.2 73.6 121.6 76.8C124.8 80 129.6 80 132.8 77.6L140.8 70.4C144.8 67.2 144.8 61.6 141.6 58.4zM184 96C184 91.2 180.8 88 176 88S168 91.2 168 96V104C168 108.8 171.2 112 176 112S184 108.8 184 104V96zM128 200C175.2 200 216.8 177.6 243.2 142.4C244 146.4 244.8 151.2 244.8 155.2C244.8 184 221.6 207.2 192.8 207.2C189.6 207.2 186.4 207.2 182.4 206.4C172.8 226.4 151.2 240 128 240S83.2 226.4 72.8 206.4C69.6 207.2 65.6 207.2 62.4 207.2C33.6 207.2 10.4 184 10.4 155.2C10.4 151.2 11.2 146.4 12 142.4C39.2 177.6 80.8 200 128 200z" />
    <glyph glyph-name="food-course"
      unicode="&#xEA51;"
      horiz-adv-x="256" d="M120 256H136V200H120V256zM64 232H80V176H64V232zM176 232H192V176H176V232zM248 8H8C3.584 8 0 11.576 0 16S3.584 24 8 24H248C252.416 24 256 20.424 256 16S252.416 8 248 8zM238.784 40C232.52 83.48 201.24 118.96 160 131.28V144C160 161.648 145.648 176 128 176S96 161.648 96 144V131.28C54.76 118.96 23.48 83.48 17.216 40H238.784zM112 144C112 152.824 119.176 160 128 160S144 152.824 144 144V134.72C138.76 135.48 133.448 136 128 136S117.24 135.48 112 134.72V144z" />
    <glyph glyph-name="sushi"
      unicode="&#xEA52;"
      horiz-adv-x="256" d="M255.512 138.752C253.992 142.896 249.392 145.024 245.248 143.512L222.936 135.328C228.648 144.912 232 156.056 232 168C232 203.288 203.288 232 168 232C156.056 232 144.912 228.648 135.328 222.936L143.512 245.248C145.032 249.4 142.904 253.992 138.752 255.512C134.592 257.032 130.008 254.896 128.488 250.752L64.92 77.392L5.24 55.512C1.088 53.992 -1.04 49.392 0.48 45.248C1.672 42.008 4.736 40 8 40C8.912 40 9.84 40.16 10.752 40.496L250.752 128.496C254.904 130.008 257.032 134.608 255.512 138.752zM84.616 84.616L107.552 147.176C113.96 128.64 128.632 113.968 147.168 107.56L84.616 84.616zM168 144C154.744 144 144 154.744 144 168S154.744 192 168 192S192 181.256 192 168S181.256 144 168 144zM50.48 38.016L40.488 10.76C38.968 6.608 41.096 2.016 45.248 0.496C46.16 0.16 47.088 0 48 0C51.264 0 54.328 2.008 55.512 5.248L70.176 45.232L50.48 38.016z" />
    <glyph glyph-name="mortar"
      unicode="&#xEA53;"
      horiz-adv-x="256" d="M240 152H16A8 8 0 0 1 8 144A120.376 120.376 0 0 1 64 42.6V16A8 8 0 0 1 72 8H184A8 8 0 0 1 192 16V42.6A120.376 120.376 0 0 1 248 144A8 8 0 0 1 240 152zM182.76 168L212.8 220A24 24 0 0 1 171.2 244L127.336 168z" />
    <glyph glyph-name="pancake"
      unicode="&#xEA54;"
      horiz-adv-x="256" d="M56 117.92A135.616 135.616 0 0 0 0 138.72V120C0 103.576 23.768 92.536 56 86.28zM144 112.296V80.296C200.592 82.288 256 94.872 256 119.984V138.68C229.416 118.4 175.928 113.384 144 112.296zM100 48A44 44 0 0 0 62.68 68.8C39.024 72.552 15.136 79.112 0 90.68V72C0 44.512 66.352 32 128 32S256 44.512 256 72V90.68C226.4 68.048 163.32 64.432 133.952 64A43.952 43.952 0 0 0 100 48zM128 232C66.352 232 0 219.488 0 192V168C0 148.952 31.904 137.112 72 131.632V92A28 28 0 0 1 128 92V128C189.648 128 256 140.512 256 168V192C256 219.488 189.648 232 128 232zM112 168.248V92A12 12 0 0 0 88 92V169.808L80.928 170.608C32 176.328 16 188.464 16 192C16 199.2 54.104 216 128 216S240 199.2 240 192S201.896 168 128 168C125.888 168 123.816 168.04 121.744 168.08z" />
    <glyph glyph-name="muffin"
      unicode="&#xEA55;"
      horiz-adv-x="256" d="M204 223.2C199.2 223.2 194.4 222.4 189.6 221.6C176.8 243.2 153.6 256 128 256S79.2 243.2 65.6 221.6C60.8 222.4 56 223.2 52 223.2C23.2 223.2 0 200 0 172C0 143.2 23.2 120 52 120C61.6 120 71.2 122.4 79.2 128C92.8 116 110.4 108.8 128 108.8S164 116 176.8 128C184.8 122.4 194.4 120 204 120C232.8 120 256 143.2 256 172C256 200 232.8 223.2 204 223.2zM61.6 162.4C60 160.8 58.4 160 56 160S52 160.8 50.4 162.4L42.4 170.4C39.2 173.6 39.2 178.4 42.4 181.6S50.4 184.8 53.6 181.6L61.6 173.6C64.8 170.4 64.8 165.6 61.6 162.4zM125.6 202.4L117.6 194.4C116 192.8 114.4 192 112 192S108 192.8 106.4 194.4C103.2 197.6 103.2 202.4 106.4 205.6L114.4 213.6C117.6 216.8 122.4 216.8 125.6 213.6S128.8 205.6 125.6 202.4zM160 160C160 155.2 156.8 152 152 152S144 155.2 144 160V168C144 172.8 147.2 176 152 176S160 172.8 160 168V160zM213.6 170.4C212 168.8 210.4 168 208 168S204 168.8 202.4 170.4L194.4 178.4C191.2 181.6 191.2 186.4 194.4 189.6S202.4 192.8 205.6 189.6L213.6 181.6C216.8 178.4 216.8 173.6 213.6 170.4zM204 104C195.2 104 186.4 105.6 178.4 108.8C163.2 98.4 145.6 92.8 127.2 92.8S91.2 98.4 76 108.8C68 105.6 59.2 104 50.4 104C42.4 104 35.2 105.6 28 108L53.6 6.4C56 2.4 59.2 0 62.4 0H193.6C197.6 0 200.8 2.4 201.6 6.4L227.2 108C220 105.6 212 104 204 104z" />
    <glyph glyph-name="eggs"
      unicode="&#xEA56;"
      horiz-adv-x="256" d="M235.136 211.52C219.792 240.2 200.208 256 180 256C164.576 256 149.536 246.744 136.448 229.6C170.968 199.52 192 138.512 192 94A103.00000000000001 103.00000000000001 0 0 0 184.8 56.248A76.608 76.608 0 0 1 256 133A177.968 177.968 0 0 1 235.136 211.52zM92 232C44.072 232 8 148.28 8 94A85.112 85.112 0 0 1 92 8A85.112 85.112 0 0 1 176 94C176 148.28 139.928 232 92 232zM92 56A36 36 0 1 0 128 92A36 36 0 0 0 92 56z" />
    <glyph glyph-name="chips"
      unicode="&#xEA57;"
      horiz-adv-x="256" d="M238.4 164.8C236.8 167.2 234.4 168 232 168H216V224C216 228.8 212.8 232 208 232H184V240C184 244.8 180.8 248 176 248H144C139.2 248 136 244.8 136 240V216H120V248C120 252.8 116.8 256 112 256H80C75.2 256 72 252.8 72 248V232H48C43.2 232 40 228.8 40 224V168H24C21.6 168 19.2 167.2 17.6 164.8C16 163.2 16 160.8 16 158.4L48 6.4C48.8 2.4 52 0 56 0H200C204 0 207.2 2.4 208 6.4L240 158.4C240 160.8 240 163.2 238.4 164.8zM72 168H56V216H72V168zM120 200H136V168H120V200zM88 240H104V168H88V240zM128 40C105.6 40 88 57.6 88 80S105.6 120 128 120S168 102.4 168 80S150.4 40 128 40zM168 168H152V232H168V168zM200 168H184V216H200V168z" />
    <glyph glyph-name="bakery"
      unicode="&#xEA58;"
      horiz-adv-x="256" d="M140.728 229.6A62.46399999999999 62.46399999999999 0 0 1 126.696 207.504A60.456 60.456 0 0 0 161.6 177.768A53.88799999999999 53.88799999999999 0 0 1 122.576 190.568A61.60000000000001 61.60000000000001 0 0 1 69.6 150.352A60.42399999999999 60.42399999999999 0 0 0 104.52 120.624A53.896 53.896 0 0 1 65.512 133.424A62.84 62.84 0 1 1 115.368 26.44L229.6 140.728A62.84 62.84 0 0 1 140.728 229.6z" />
    <glyph glyph-name="whisk"
      unicode="&#xEA59;"
      horiz-adv-x="256" d="M75.024 107.024L14.624 46.624C5.784 37.784 5.784 23.464 14.624 14.624C23.464 5.784 37.784 5.784 46.624 14.624L107.024 75.024L75.024 107.024zM228.112 228.048C228.104 228.056 228.096 228.072 228.08 228.088C228.064 228.104 228.056 228.112 228.04 228.12C201.52 254.6 158.408 254.584 131.904 228.08C107.128 203.312 88.952 125.104 88.192 121.784L87.2 117.464L117.592 87.072L122.048 88.256C130.752 90.576 207.64 111.472 228.08 131.904C254.592 158.416 254.6 201.536 228.112 228.048zM190.344 169.656C175.728 155.04 133.616 127.376 115.832 115.928C126.536 133.048 152.176 172.856 169.664 190.344C189.712 210.384 207.176 217.512 214.056 217.512C215.368 217.512 216.296 217.248 216.784 216.768C219.776 213.768 214.224 193.544 190.344 169.656zM143.224 216.768C157.688 231.232 178.608 235.32 196.776 229.144C184.12 223.736 170.264 213.584 158.336 201.648C142.032 185.344 120.144 152.552 107.432 132.624C114.616 159.216 128.496 202.04 143.224 216.768zM216.776 143.232C204.632 131.096 160.728 116.224 133.048 108.008C153.792 121.552 187.928 144.608 201.664 158.344C213.6 170.28 223.752 184.144 229.152 196.8C235.328 178.624 231.24 157.696 216.776 143.232z" />
    <glyph glyph-name="smoothie"
      unicode="&#xEA5A;"
      horiz-adv-x="256" d="M51.128 104L64.072 6.944A8 8 0 0 1 72 0H184A8 8 0 0 1 191.928 6.944L204.872 104zM216 136H207.592A80.104 80.104 0 0 1 128 208C126.4 208 124.92 207.872 123.376 207.784L120 248.664A8 8 0 0 1 112 256H64V240H104.64L107.536 205.28A80.152 80.152 0 0 1 48.408 136H40A8 8 0 0 1 40 120H216A8 8 0 0 1 216 136z" />
    <glyph glyph-name="popcorn"
      unicode="&#xEA5B;"
      horiz-adv-x="256" d="M215.2 200A40 40 0 0 1 176 248A39.504 39.504 0 0 1 157.216 243.2A39.712 39.712 0 0 1 98.816 243.2A39.504 39.504 0 0 1 80 248A40 40 0 0 1 40.8 200zM151.992 8L159.992 184L96.008 184L104.008 8L151.992 8zM230.064 181.216A8 8 0 0 1 224 184H176L168 8H200A8 8 0 0 1 207.912 14.816L231.912 174.816A8 8 0 0 1 230.064 181.216zM80 184H32A8 8 0 0 1 24.088 174.816L48.088 14.816A8 8 0 0 1 56 8H88z" />
    <glyph glyph-name="lollipop"
      unicode="&#xEA5C;"
      horiz-adv-x="256" d="M113.776 113.776C111.864 115.688 110.232 117.776 108.52 119.832L10.344 21.656A8 8 0 1 1 21.656 10.344L119.712 108.392C117.672 110.096 115.68 111.872 113.776 113.776zM240.984 144.952A72 72 0 0 1 144.984 240.952L142.08 243.848A8 8 0 0 1 130.768 243.848L108.12 221.256A8 8 0 0 1 108.12 209.944L111.016 207.04A71.816 71.816 0 0 1 206.928 111.128L209.944 108.12A8 8 0 0 1 221.256 108.12L243.88 130.744A8 8 0 0 1 243.88 142.056z" />
    <glyph glyph-name="vest-31"
      unicode="&#xEA5D;"
      horiz-adv-x="256" d="M64 184C64 188.416 67.584 192 72 192H90.52L60.832 246.44L44 224H16C7.16 224 0 216.84 0 208V16C0 7.16 7.16 0 16 0H64V184zM182.16 256L73.84 256L108.752 192L147.248 192zM240 224H212L195.168 246.44L159.024 180.168C157.624 177.6 154.928 176 152 176H80V0H240C248.84 0 256 7.16 256 16V208C256 216.84 248.84 224 240 224zM124 24C117.376 24 112 29.376 112 36S117.376 48 124 48S136 42.624 136 36S130.624 24 124 24zM124 72C117.376 72 112 77.376 112 84S117.376 96 124 96S136 90.624 136 84S130.624 72 124 72zM124 120C117.376 120 112 125.376 112 132S117.376 144 124 144S136 138.624 136 132S130.624 120 124 120z" />
    <glyph glyph-name="carrot"
      unicode="&#xEA5E;"
      horiz-adv-x="256" d="M248 246.544C227.472 246.544 212.184 238.88 202.32 223.864C192.768 229.464 181.704 232.256 170.472 231.576C154.384 230.616 139.456 222.8 129.496 210.128L114.176 190.64L143.952 161.504C147.104 158.408 147.144 153.336 144.048 150.192C142.488 148.6 140.416 147.8 138.344 147.8C136.32 147.8 134.296 148.568 132.736 150.096L104.232 177.984L30.56 84.216L45.592 69.728C48.752 66.64 48.816 61.568 45.728 58.416C44.16 56.808 42.08 56 40 56C37.984 56 35.968 56.76 34.408 58.272L20.608 71.552L6.96 54.184C-3.224 41.224 -2.112 22.656 9.544 11C15.864 4.68 24.216 1.464 32.6 1.464C39.68 1.464 46.792 3.76 52.72 8.424L124.392 64.736L102.288 87.96C99.224 91.136 99.312 96.208 102.496 99.272S110.744 102.232 113.808 99.072L137.04 74.68L208.672 130.96C221.336 140.92 229.16 155.856 230.12 171.944C231.048 187.448 225.464 202.608 214.864 213.888C221.768 225.208 232.424 230.544 248 230.544C252.416 230.544 256 234.12 256 238.544S252.416 246.544 248 246.544z" />
    <glyph glyph-name="cutlery"
      unicode="&#xEA5F;"
      horiz-adv-x="256" d="M28.6855214258365 207.9967295680721L39.9992299248213 219.3104380670568L83.3137629131844 175.9959050786937L72.0000544141996 164.6821965797089L28.6855214258365 207.9967295680721zM166.04 70.648L224 12.688L235.312 24L180.264 79.048A134.24 134.24 0 0 0 166.04 70.648zM235.128 223.368A8 8 0 0 1 226.328 221.656L132 127.312L107.312 152L114.344 159.032A24 24 0 0 1 114.344 192.968L64 243.312L52.688 232L103.024 181.656A8 8 0 0 0 103.024 170.344L77.656 144.968A8.168 8.168 0 0 0 66.344 144.968L16 195.312L4.688 184L55.024 133.656A24 24 0 0 1 88.968 133.656L96 140.688L120.688 116L30.344 25.656L41.656 14.344L99.336 72C141.648 72.528 166.8 83.464 197.656 114.32C238.496 155.2 240 213.408 240 215.856A8 8 0 0 1 235.128 223.368z" />
    <glyph glyph-name="chef"
      unicode="&#xEA60;"
      horiz-adv-x="256" d="M174.4 92A63.711999999999996 63.711999999999996 0 0 0 81.68 92A96.056 96.056 0 0 1 32 8A8 8 0 0 1 40 0H216A8 8 0 0 1 224 8A96.056 96.056 0 0 1 174.4 92zM168 248A31.271999999999995 31.271999999999995 0 0 1 155.16 245.256A39.688 39.688 0 0 1 100.848 245.256A31.336 31.336 0 0 1 88 248A32 32 0 0 1 80 185.016V136A48 48 0 0 1 176 136V185.016A32 32 0 0 1 168 248zM160 136A32 32 0 0 0 96 136V152H160z" />
    <glyph glyph-name="ice-cream-22"
      unicode="&#xEA61;"
      horiz-adv-x="256" d="M198.4 196.8C192.8 231.2 163.2 256 128 256S63.2 231.2 57.6 196.8C42.4 191.2 32 176.8 32 160C32 137.6 49.6 120 72 120H184C206.4 120 224 137.6 224 160C224 176.8 213.6 191.2 198.4 196.8zM77.6 104L110.4 12.8C112.8 4.8 120 0 128 0S143.2 4.8 145.6 12.8L178.4 104H77.6z" />
    <glyph glyph-name="paris-tower"
      unicode="&#xEA62;"
      horiz-adv-x="256" d="M72 136H184C188.8 136 192 139.2 192 144S188.8 152 184 152H167.2C162.4 164.8 160 176 160 184V208C160 223.2 149.6 235.2 136 239.2V248C136 252.8 132.8 256 128 256C123.2 256 120 252.8 120 248V239.2C106.4 236 96 223.2 96 208V184C96 176 92.8 164.8 88.8 152H72C67.2 152 64 148.8 64 144S67.2 136 72 136zM48 80H208C212.8 80 216 83.2 216 88S212.8 96 208 96H192C188 104 184 112 180.8 120H75.2C72 112 68 104 64 96H48C43.2 96 40 92.8 40 88S43.2 80 48 80zM248 16H236.8C229.6 28 219.2 44.8 208.8 64H47.2C36.8 44.8 26.4 28 19.2 16H8C3.2 16 0 12.8 0 8S3.2 0 8 0H96C100.8 0 104 3.2 104 8V16C104 29.6 114.4 40 128 40C141.6 40 152 29.6 152 16V8C152 3.2 155.2 0 160 0H248C252.8 0 256 3.2 256 8S252.8 16 248 16z" />
    </font>
</defs>
</svg>
